<svg width="46.212311" height="50.000000" viewBox="0 0 46.2123 50" fill="none" xmlns="http://www.w3.org/2000/svg" xmlns:xlink="http://www.w3.org/1999/xlink">
	<desc>
			Created with Pixso.
	</desc>
	<path id="矩形 1" d="M44.5685 37.24C43.71 38.7657 24.8231 49 23.1062 49C21.3892 49 2.50237 38.7143 1.64386 37.24C0.78537 35.7657 0.785385 14.059 1.64386 12.8866C2.50235 11.7143 21.3892 1 23.1062 1C24.8231 1 43.71 11.4875 44.5685 12.8866C45.4269 14.2857 45.4269 35.7143 44.5685 37.24Z" stroke="#A29BFE" stroke-width="2.000000"/>
	<path id="矩形 1" d="M39.5313 33.935C38.8706 35.1111 24.3348 43 23.0134 43C21.692 43 7.15625 35.0714 6.49553 33.935C5.83482 32.7986 5.83482 16.0663 6.49553 15.1626C7.15623 14.2589 21.692 6 23.0134 6C24.3348 6 38.8706 14.0842 39.5313 15.1626C40.192 16.2411 40.192 32.7589 39.5313 33.935Z" stroke="#A29BFE" stroke-width="2.000000"/>
	<path id="矩形 2" d="M23 25.7321L24 24L33.5263 29.5C34.0046 29.7762 34.1684 30.3877 33.8923 30.866C33.6162 31.3443 33.0046 31.5082 32.5263 31.2321L23 25.7321Z" fill-rule="evenodd" fill="#A29BFE"/>
	<path id="矩形 2" d="M24 24L22 24L22 13C22 12.4477 22.4477 12 23 12C23.5523 12 24 12.4477 24 13L24 24Z" fill-rule="evenodd" fill="#A29BFE"/>
	<path id="矩形 2" d="M22 24L23 25.7321L13.4737 31.2321C12.9954 31.5082 12.3838 31.3443 12.1077 30.866C11.8316 30.3877 11.9954 29.7761 12.4737 29.5L22 24Z" fill-rule="evenodd" fill="#A29BFE"/>
	<rect id="矩形 3" x="22.000000" y="23.000000" width="2.000000" height="2.730000" fill="#A29BFE"/>
	<defs/>
</svg>
