<svg width="1340.000000" height="820.000000" viewBox="0 0 1340 820" fill="none" xmlns="http://www.w3.org/2000/svg" xmlns:xlink="http://www.w3.org/1999/xlink">
	<desc>
			Created with Pixso.
	</desc>
	<rect id="background-image" rx="10.000000" width="1340.000000" height="820.000000" fill="#F5F5F5"/>
	<g clip-path="url(#clip2_2)">
		<rect id="nav" y="-1.000000" width="1339.000000" height="55.000000" fill="#6C5CE7"/>
		<rect id="矩形 3" x="24.000000" y="19.000000" rx="7.500000" width="15.000000" height="15.000000" fill="#FD873B"/>
		<rect id="矩形 3" x="86.000000" y="19.000000" rx="7.500000" width="15.000000" height="15.000000" fill="#91DD9D"/>
		<rect id="矩形 3" x="55.000000" y="19.000000" rx="7.500000" width="15.000000" height="15.000000" fill="#FFCD8A"/>
		<rect id="矩形 4" x="936.000000" y="12.000000" rx="15.000000" width="232.000000" height="30.000000" fill="#A29BFE"/>
		<rect id="矩形 5" x="1283.000000" y="12.000000" rx="5.000000" width="30.000000" height="30.000000" fill="#A29BFE"/>
		<rect id="矩形 5" x="1184.000000" y="12.000000" rx="5.000000" width="30.000000" height="30.000000" fill="#A29BFE"/>
		<rect id="矩形 5" x="1233.000000" y="12.000000" rx="5.000000" width="30.000000" height="30.000000" fill="#A29BFE"/>
		<path id="effortless-design" d="M208.402 31.6484Q207.84 31.9297 206.996 31.8945Q206.451 31.8945 205.993 31.6942Q205.683 31.5589 205.414 31.332Q205.151 31.1146 204.962 30.845Q204.571 30.2864 204.5 29.5039L204.465 28.6953Q204.57 27.1836 205.309 26.2344Q205.783 25.6016 206.416 25.2852Q206.627 25.1797 206.855 25.1094Q207.348 24.9688 207.98 25.0039L208.508 25.0742L208.93 25.1797L208.93 20.5039Q208.947 20.1168 209.15 19.9234Q209.352 19.7305 209.738 19.7305Q210.143 19.7305 210.345 19.9326Q210.547 20.1348 210.547 20.5391L210.547 31.1914Q210.547 31.5957 210.345 31.7979Q210.143 32 209.738 32Q209.371 32 209.169 31.8173Q208.965 31.6327 208.93 31.2617L208.789 31.4375L208.402 31.6484ZM176.591 20.0275Q176.813 20.2189 176.832 20.6445L176.832 31.2266Q176.813 31.6522 176.591 31.8436Q176.41 32 176.094 32Q175.758 32 175.575 31.8329Q175.355 31.6324 175.355 31.1914L175.355 20.6445Q175.355 20.2398 175.558 20.0469Q175.742 19.8711 176.094 19.8711Q176.41 19.8711 176.591 20.0275ZM228.099 20.0908Q228.318 19.8711 228.758 19.8711Q229.197 19.8711 229.417 20.0908Q229.637 20.3105 229.637 20.75Q229.637 21.1547 229.435 21.3652Q229.215 21.5938 228.758 21.5938Q228.3 21.5938 228.081 21.3652Q227.879 21.1547 227.879 20.75Q227.879 20.3105 228.099 20.0908ZM229.311 23.6148Q229.514 23.8082 229.531 24.1953L229.531 31.2266Q229.514 31.6137 229.311 31.8071Q229.109 32 228.723 32Q228.336 32 228.143 31.8066Q227.949 31.6133 227.949 31.2266L227.949 24.2305Q227.949 23.8082 228.16 23.6065Q228.353 23.4219 228.723 23.4219Q229.109 23.4219 229.311 23.6148ZM232.213 30.8129Q231.985 30.4712 231.957 29.9961Q231.944 29.6647 232.042 29.3704Q232.215 28.8526 232.73 28.4492Q232.709 28.4195 232.688 28.3889Q232.444 28.0219 232.379 27.5352L232.379 26.9727Q232.444 25.9626 232.962 25.3148Q233.003 25.2637 233.047 25.2148Q233.381 24.8363 233.799 24.627Q234.042 24.5059 234.312 24.4414L234.805 24.3711L235.016 24.3359L235.121 24.3359Q235.574 24.3626 235.967 24.5309Q236.092 24.5844 236.211 24.6523L236.422 24.4766L236.773 24.3359Q237.266 24.1602 237.898 24.1602Q238.32 24.1602 238.742 24.3359Q239.002 24.4101 239.124 24.5818Q239.234 24.736 239.234 24.9688Q239.234 25.2345 239.102 25.382Q238.937 25.5664 238.566 25.5664Q238.355 25.5664 238.145 25.4258L237.934 25.3203Q237.547 25.1797 236.984 25.3906Q237.027 25.4855 237.059 25.5836Q237.136 25.8125 237.16 26.0586L237.195 26.6211Q237.138 27.5144 236.702 28.1478Q236.606 28.2872 236.492 28.4141Q236.266 28.6721 235.989 28.8488Q235.661 29.0572 235.262 29.1523Q234.805 29.2578 234.418 29.2227Q234.007 29.2227 233.645 29.0908Q233.386 28.9968 233.152 28.8359Q233.097 28.9126 233.06 28.9976Q232.913 29.3412 233.082 29.8203Q233.094 29.8532 233.109 29.8844Q233.368 30.4199 234.664 30.4531L235.262 30.4883L235.895 30.5586Q236.633 30.6992 237.16 31.0508Q237.611 31.3832 237.806 31.8279Q237.899 32.0416 237.934 32.2812L237.969 32.8438Q237.908 33.4557 237.633 33.9492Q237.435 34.3064 237.125 34.6016Q236.879 34.8214 236.6 34.9842Q236.121 35.2639 235.543 35.375Q234.98 35.4805 234.523 35.4453Q233.731 35.4453 233.098 35.1284Q233 35.0797 232.906 35.0234Q232.373 34.7218 232.145 34.267Q232.028 34.0327 231.992 33.7578L231.957 33.1602Q232.009 32.6211 232.242 32.1766Q232.48 31.7225 232.906 31.3672L232.625 31.2266L232.344 30.9805Q232.272 30.9012 232.213 30.8129ZM190.367 24.2305L190.684 24.2305Q191.304 24.2305 191.8 24.4785Q191.894 24.5258 191.984 24.582Q192.414 24.8533 192.596 25.2409Q192.698 25.4561 192.723 25.707L192.758 25.918Q192.758 26.1425 192.649 26.2842Q192.503 26.4753 192.16 26.5156Q191.792 26.5386 191.62 26.3662Q191.529 26.2749 191.492 26.1289L191.457 25.6719L191.387 25.4258L191.281 25.1797Q191.232 25.1111 191.17 25.0589Q191.008 24.9238 190.754 24.8984L190.367 24.8984Q189.796 24.9763 189.512 25.3035Q189.412 25.4193 189.348 25.5664L189.207 26.0586L189.172 26.5156L189.207 27.0781Q189.331 27.4989 189.611 27.6931Q189.729 27.7748 189.875 27.8164Q190.086 27.8516 190.297 27.8516L190.684 27.8867L191.141 28.0273Q191.773 28.2031 192.125 28.4844Q192.462 28.793 192.574 29.1689Q192.603 29.2639 192.617 29.3633L192.652 29.8555Q192.615 30.1802 192.493 30.4695Q192.272 30.9944 191.773 31.4023Q191.702 31.4622 191.626 31.5171Q191.037 31.9456 190.227 32.0703Q189.629 32.1406 189.172 32.1406Q188.707 32.1406 188.269 32.0311Q188.21 32.0165 188.152 32L187.906 31.8945L187.59 31.6836Q187.413 31.5507 187.285 31.3806Q187.109 31.1457 187.027 30.8398Q186.895 30.3104 187.012 29.8433Q187.019 29.8141 187.027 29.7852Q187.126 29.3914 187.362 29.2733Q187.463 29.2227 187.59 29.2227Q187.863 29.1999 188.018 29.3241Q188.103 29.392 188.152 29.5039L188.188 29.7148L188.188 30.1719L188.223 30.6992Q188.336 31.0388 188.57 31.2265Q188.773 31.3886 189.066 31.4375Q189.312 31.4727 189.559 31.4727Q190.429 31.3759 190.797 30.8949Q190.83 30.8513 190.859 30.8047L191 30.2773L191.07 29.8203L191 29.293L190.93 29.0469L190.789 28.8359Q190.578 28.5898 190.156 28.5195Q188.75 28.3438 188.293 27.8164L188.188 27.7109L188.152 27.6406Q188.117 27.5844 188.088 27.5253Q187.97 27.2891 187.941 27.0078L187.906 26.5156Q187.953 25.881 188.252 25.4036Q188.4 25.1668 188.609 24.9688Q188.715 24.8627 188.833 24.7714Q189.261 24.4387 189.84 24.3008L190.367 24.2305ZM197.504 24.2305L197.82 24.2305Q198.44 24.2305 198.937 24.4785Q199.031 24.5258 199.121 24.582Q199.551 24.8533 199.733 25.2409Q199.834 25.4561 199.859 25.707L199.895 25.918Q199.895 26.1425 199.786 26.2842Q199.64 26.4753 199.297 26.5156Q198.929 26.5386 198.757 26.3662Q198.665 26.2749 198.629 26.1289L198.594 25.6719L198.523 25.4258L198.418 25.1797Q198.369 25.1111 198.306 25.0589Q198.144 24.9238 197.891 24.8984L197.504 24.8984Q196.933 24.9763 196.649 25.3035Q196.549 25.4193 196.484 25.5664L196.344 26.0586L196.309 26.5156L196.344 27.0781Q196.468 27.4989 196.748 27.6931Q196.866 27.7748 197.012 27.8164Q197.223 27.8516 197.434 27.8516L197.82 27.8867L198.277 28.0273Q198.91 28.2031 199.262 28.4844Q199.598 28.793 199.711 29.1689Q199.74 29.2639 199.754 29.3633L199.789 29.8555Q199.752 30.1802 199.63 30.4695Q199.409 30.9944 198.91 31.4023Q198.838 31.4622 198.763 31.5171Q198.174 31.9456 197.363 32.0703Q196.766 32.1406 196.309 32.1406Q195.843 32.1406 195.405 32.0311Q195.347 32.0165 195.289 32L195.043 31.8945L194.727 31.6836Q194.549 31.5507 194.422 31.3806Q194.246 31.1457 194.164 30.8398Q194.032 30.3104 194.148 29.8433Q194.156 29.8141 194.164 29.7852Q194.263 29.3914 194.499 29.2733Q194.6 29.2227 194.727 29.2227Q194.999 29.1999 195.154 29.3241Q195.239 29.392 195.289 29.5039L195.324 29.7148L195.324 30.1719L195.359 30.6992Q195.473 31.0388 195.707 31.2265Q195.91 31.3886 196.203 31.4375Q196.449 31.4727 196.695 31.4727Q197.566 31.3759 197.934 30.8949Q197.967 30.8513 197.996 30.8047L198.137 30.2773L198.207 29.8203L198.137 29.293L198.066 29.0469L197.926 28.8359Q197.715 28.5898 197.293 28.5195Q195.887 28.3438 195.43 27.8164L195.324 27.7109L195.289 27.6406Q195.254 27.5844 195.224 27.5253Q195.106 27.2891 195.078 27.0078L195.043 26.5156Q195.09 25.881 195.388 25.4036Q195.536 25.1668 195.746 24.9688Q195.852 24.8627 195.97 24.7714Q196.397 24.4387 196.977 24.3008L197.504 24.2305ZM223.52 24.2305L223.836 24.2305Q224.456 24.2305 224.952 24.4785Q225.047 24.5258 225.137 24.582Q225.566 24.8533 225.749 25.2409Q225.85 25.4561 225.875 25.707L225.91 25.918Q225.91 26.1425 225.802 26.2842Q225.656 26.4753 225.312 26.5156Q224.945 26.5386 224.772 26.3662Q224.681 26.2749 224.645 26.1289L224.609 25.6719L224.539 25.4258L224.434 25.1797Q224.385 25.1111 224.322 25.0589Q224.16 24.9238 223.906 24.8984L223.52 24.8984Q222.948 24.9763 222.665 25.3035Q222.564 25.4193 222.5 25.5664L222.359 26.0586L222.324 26.5156L222.359 27.0781Q222.483 27.4989 222.764 27.6931Q222.882 27.7748 223.027 27.8164Q223.238 27.8516 223.449 27.8516L223.836 27.8867L224.293 28.0273Q224.926 28.2031 225.277 28.4844Q225.614 28.793 225.727 29.1689Q225.755 29.2639 225.77 29.3633L225.805 29.8555Q225.767 30.1802 225.645 30.4695Q225.424 30.9944 224.926 31.4023Q224.854 31.4622 224.779 31.5171Q224.189 31.9456 223.379 32.0703Q222.781 32.1406 222.324 32.1406Q221.859 32.1406 221.421 32.0311Q221.363 32.0165 221.305 32L221.059 31.8945L220.742 31.6836Q220.565 31.5507 220.437 31.3806Q220.261 31.1457 220.18 30.8398Q220.047 30.3104 220.164 29.8433Q220.171 29.8141 220.18 29.7852Q220.278 29.3914 220.514 29.2733Q220.616 29.2227 220.742 29.2227Q221.015 29.1999 221.17 29.3241Q221.255 29.392 221.305 29.5039L221.34 29.7148L221.34 30.1719L221.375 30.6992Q221.488 31.0388 221.723 31.2265Q221.926 31.3886 222.219 31.4375Q222.465 31.4727 222.711 31.4727Q223.581 31.3759 223.949 30.8949Q223.983 30.8513 224.012 30.8047L224.152 30.2773L224.223 29.8203L224.152 29.293L224.082 29.0469L223.941 28.8359Q223.73 28.5898 223.309 28.5195Q221.902 28.3438 221.445 27.8164L221.34 27.7109L221.305 27.6406Q221.27 27.5844 221.24 27.5253Q221.122 27.2891 221.094 27.0078L221.059 26.5156Q221.106 25.881 221.404 25.4036Q221.552 25.1668 221.762 24.9688Q221.868 24.8627 221.985 24.7714Q222.413 24.4387 222.992 24.3008L223.52 24.2305ZM241.317 31.7803Q241.098 31.5605 241.098 31.1211L241.098 25.2148Q241.098 24.7754 241.317 24.5557Q241.537 24.3359 241.977 24.3359Q242.229 24.3359 242.411 24.4496Q242.634 24.5887 242.75 24.8984Q242.823 24.8416 242.9 24.7905Q243.156 24.6199 243.453 24.5117Q243.98 24.3359 244.613 24.3711Q245.739 24.4406 246.348 25.0371Q247.28 25.9501 247.004 28.0977L246.969 31.2266Q246.969 31.5781 246.793 31.7539Q246.617 31.9297 246.266 31.9297Q245.914 31.9297 245.738 31.7539Q245.562 31.5781 245.562 31.2266L245.562 28.0977Q245.562 26.0786 244.783 25.7112Q244.735 25.6883 244.684 25.6719Q244.094 25.5033 243.641 25.6823Q243.15 25.8765 242.82 26.4805L242.82 31.1562Q242.802 31.5972 242.572 31.8077Q242.363 32 241.977 32Q241.537 32 241.317 31.7803ZM157.873 31.6426Q157.577 31.7831 157.25 31.8594Q156.582 32.0352 156.02 32Q155.417 31.9799 154.895 31.765Q154.503 31.6035 154.156 31.332Q153.71 30.9976 153.445 30.5551Q153.124 30.0205 153.066 29.3281L153.031 28.4492Q153.123 27.0116 153.827 25.9998Q153.932 25.8486 154.051 25.707Q154.513 25.1567 155.099 24.827Q155.449 24.63 155.844 24.5117Q156.16 24.4062 156.617 24.4062L156.898 24.3711L157.074 24.4062Q157.668 24.4062 158.184 24.6068Q158.584 24.7625 158.938 25.0391Q159.323 25.3387 159.575 25.7252Q159.944 26.291 160.027 27.043L160.062 27.9219Q159.966 29.4629 159.196 30.5055Q159.122 30.6046 159.043 30.6992Q158.534 31.33 157.873 31.6426ZM172.21 30.8202Q172.311 30.7695 172.438 30.7695Q172.737 30.7695 172.877 30.9189Q173 31.0502 173 31.2969Q173 31.4994 172.903 31.629Q172.797 31.7694 172.578 31.8242Q172.375 31.9256 172.161 31.9685Q172.003 32 171.84 32L171.699 32Q170.419 32.0191 169.866 31.3944Q169.401 30.8697 169.449 29.8906L169.449 27.043L168.992 27.043Q168.799 27.043 168.702 26.9463Q168.605 26.8496 168.605 26.6562Q168.605 26.4805 168.693 26.3926Q168.781 26.3047 168.957 26.3047L169.449 26.3047L169.449 25.0391Q169.449 24.7227 169.607 24.5645Q169.766 24.4062 170.082 24.4062Q170.38 24.4062 170.538 24.5551Q170.697 24.7045 170.715 25.0039L170.715 26.3047L172.297 26.3047Q172.473 26.3047 172.561 26.3926Q172.648 26.4805 172.648 26.6562Q172.648 26.8496 172.552 26.9463Q172.455 27.043 172.262 27.043L170.715 27.043L170.715 29.6445Q170.715 30.7212 171.146 30.9365Q171.207 30.9673 171.277 30.9805Q171.629 31.0508 171.91 30.9805L172.086 30.9102Q172.142 30.8539 172.21 30.8202ZM138.301 34.6367L138.301 29.5742L137.633 29.5742Q137.324 29.5521 137.209 29.3912Q137.141 29.2961 137.141 29.1523Q137.141 28.9877 137.221 28.8873Q137.346 28.7305 137.668 28.7305L138.301 28.7305L138.301 26.832Q138.249 25.936 138.657 25.3758Q139.355 24.4193 141.395 24.4414L141.605 24.4414Q141.91 24.4414 142.202 24.4999Q142.417 24.5428 142.625 24.6172Q142.966 24.7025 143.101 24.9173Q143.188 25.0565 143.188 25.25Q143.188 25.4866 143.072 25.6295Q142.895 25.8477 142.449 25.8477Q142.224 25.8477 142.044 25.7577Q141.999 25.7352 141.957 25.707L141.676 25.6016Q141.324 25.4961 140.832 25.6016Q140.684 25.6284 140.565 25.7014Q140.059 26.0108 140.059 27.1484L140.059 28.7305L142.203 28.7305Q142.487 28.7305 142.607 28.8707Q142.695 28.9737 142.695 29.1523Q142.695 29.2961 142.627 29.3912Q142.512 29.5521 142.203 29.5742L140.059 29.5742L140.059 34.6719Q140.044 34.9572 139.897 35.1268Q139.681 35.375 139.18 35.375Q138.664 35.375 138.451 35.1212Q138.301 34.9421 138.301 34.6367ZM146.211 34.6367L146.211 29.5742L145.543 29.5742Q145.234 29.5521 145.119 29.3912Q145.051 29.2961 145.051 29.1523Q145.051 28.9877 145.131 28.8873Q145.257 28.7305 145.578 28.7305L146.211 28.7305L146.211 26.832Q146.159 25.936 146.568 25.3758Q147.265 24.4193 149.305 24.4414L149.516 24.4414Q149.82 24.4414 150.112 24.4999Q150.327 24.5428 150.535 24.6172Q150.876 24.7025 151.011 24.9173Q151.098 25.0565 151.098 25.25Q151.098 25.4866 150.982 25.6295Q150.805 25.8477 150.359 25.8477Q150.134 25.8477 149.954 25.7577Q149.909 25.7352 149.867 25.707L149.586 25.6016Q149.234 25.4961 148.742 25.6016Q148.594 25.6284 148.475 25.7014Q147.969 26.0108 147.969 27.1484L147.969 28.7305L150.113 28.7305Q150.397 28.7305 150.517 28.8707Q150.605 28.9737 150.605 29.1523Q150.605 29.2961 150.537 29.3912Q150.423 29.5521 150.113 29.5742L147.969 29.5742L147.969 34.6719Q147.954 34.9572 147.807 35.1268Q147.591 35.375 147.09 35.375Q146.575 35.375 146.361 35.1212Q146.211 34.9421 146.211 34.6367ZM132.957 31.8594Q132.324 32.0352 131.832 32Q131.34 31.983 130.896 31.8266Q130.422 31.6591 130.004 31.332Q129.652 31.0717 129.407 30.7342Q128.99 30.1603 128.879 29.3633L128.773 28.4844Q128.773 26.832 129.547 25.7422Q129.938 25.199 130.463 24.8707Q130.788 24.6678 131.164 24.5469Q131.48 24.4766 131.867 24.4414L132.289 24.4414Q132.869 24.4414 133.383 24.6251Q133.711 24.7421 134.012 24.9336Q134.42 25.2112 134.692 25.5874Q135.005 26.0211 135.137 26.5859Q135.207 26.8672 135.207 27.2891L135.207 27.3242Q135.207 27.8033 134.992 28.1492Q134.545 28.8692 133.168 29.0117Q132.465 29.082 131.586 28.9766L130.953 28.9062L130.531 28.8359L130.637 29.4336Q130.889 30.4434 131.481 30.7167Q131.549 30.7479 131.621 30.7695Q131.867 30.8398 132.148 30.8047Q133.625 30.7344 134.047 30.0312Q134.255 29.8001 134.448 29.8121Q134.548 29.8184 134.645 29.8906Q134.749 29.9689 134.785 30.0714Q134.848 30.2451 134.715 30.4883Q134.233 31.2737 133.533 31.6392Q133.261 31.7808 132.957 31.8594ZM165.888 26.1583Q165.778 26.1143 165.688 26.0234L165.441 25.918Q165.275 25.85 165.104 25.8339Q164.479 25.7753 163.789 26.4102L163.789 31.1914Q163.77 31.6344 163.539 31.8347Q163.349 32 163.016 32Q162.646 32 162.453 31.8154Q162.242 31.6136 162.242 31.1914L162.242 25.25Q162.242 24.8278 162.453 24.626Q162.646 24.4414 163.016 24.4414Q163.278 24.4414 163.457 24.564Q163.66 24.704 163.754 25.0039Q164 24.8281 164.352 24.7227Q164.809 24.582 165.371 24.582Q165.828 24.6172 166.285 24.793Q166.499 24.8542 166.62 24.9953Q166.777 25.1784 166.777 25.4961Q166.777 25.8657 166.593 26.041Q166.426 26.1992 166.109 26.1992Q165.991 26.1992 165.888 26.1583ZM183.16 31.8594Q182.527 32.0352 182.035 32Q181.543 31.983 181.099 31.8266Q180.625 31.6591 180.207 31.332Q179.856 31.0717 179.61 30.7342Q179.193 30.1603 179.082 29.3633L178.977 28.4844Q178.977 26.832 179.75 25.7422Q180.141 25.199 180.666 24.8707Q180.991 24.6678 181.367 24.5469Q181.684 24.4766 182.07 24.4414L182.492 24.4414Q183.072 24.4414 183.586 24.6251Q183.914 24.7421 184.215 24.9336Q184.623 25.2112 184.895 25.5874Q185.208 26.0211 185.34 26.5859Q185.41 26.8672 185.41 27.2891L185.41 27.3242Q185.41 27.8033 185.195 28.1492Q184.749 28.8692 183.371 29.0117Q182.668 29.082 181.789 28.9766L181.156 28.9062L180.734 28.8359L180.84 29.4336Q181.092 30.4434 181.685 30.7167Q181.752 30.7479 181.824 30.7695Q182.07 30.8398 182.352 30.8047Q183.828 30.7344 184.25 30.0312Q184.458 29.8001 184.651 29.8121Q184.751 29.8184 184.848 29.8906Q184.952 29.9689 184.989 30.0714Q185.051 30.2451 184.918 30.4883Q184.437 31.2737 183.736 31.6392Q183.465 31.7808 183.16 31.8594ZM216.312 31.8594Q215.68 32.0352 215.188 32Q214.695 31.983 214.252 31.8266Q213.777 31.6591 213.359 31.332Q213.008 31.0717 212.762 30.7342Q212.345 30.1603 212.234 29.3633L212.129 28.4844Q212.129 26.832 212.902 25.7422Q213.293 25.199 213.819 24.8707Q214.143 24.6678 214.52 24.5469Q214.836 24.4766 215.223 24.4414L215.645 24.4414Q216.224 24.4414 216.739 24.6251Q217.066 24.7421 217.367 24.9336Q217.775 25.2112 218.047 25.5874Q218.36 26.0211 218.492 26.5859Q218.562 26.8672 218.562 27.2891L218.562 27.3242Q218.562 27.8033 218.348 28.1492Q217.901 28.8692 216.523 29.0117Q215.82 29.082 214.941 28.9766L214.309 28.9062L213.887 28.8359L213.992 29.4336Q214.245 30.4434 214.837 30.7167Q214.905 30.7479 214.977 30.7695Q215.223 30.8398 215.504 30.8047Q216.98 30.7344 217.402 30.0312Q217.61 29.8001 217.803 29.8121Q217.904 29.8184 218 29.8906Q218.104 29.9689 218.141 30.0714Q218.203 30.2451 218.07 30.4883Q217.589 31.2737 216.888 31.6392Q216.617 31.7808 216.312 31.8594ZM202.777 25.0391Q202.039 24.9336 201.371 25.0742Q201.17 25.1412 201.081 25.2801Q200.983 25.4326 201.02 25.6719Q201.049 25.707 201.081 25.7393Q201.242 25.9004 201.477 25.9883Q202.355 26.0938 203.023 25.7773Q203.073 25.4299 202.93 25.2051Q202.87 25.1115 202.777 25.0391ZM235.561 25.2788Q235.41 25.1532 235.191 25.1094L234.84 25.1094Q234.395 25.17 234.113 25.4168Q233.905 25.5991 233.785 25.8828L233.68 26.4453L233.645 26.9727L233.68 27.6055Q233.783 28.1202 234.093 28.3335Q234.206 28.4116 234.348 28.4492Q234.523 28.4844 234.734 28.4844Q235.188 28.4225 235.46 28.1674Q235.652 27.9873 235.754 27.7109L235.895 27.1484L235.93 26.6211L235.895 25.9883L235.824 25.7422L235.719 25.4609Q235.652 25.3549 235.561 25.2788ZM154.93 27.6758L154.859 28.4844L154.93 29.4336Q155.092 30.2736 155.589 30.5914Q155.737 30.686 155.914 30.7344Q156.125 30.8135 156.336 30.8135Q156.406 30.8135 156.477 30.8047Q157.087 30.7093 157.48 30.3653Q157.811 30.0755 157.988 29.6094L158.164 28.7305L158.234 27.8867L158.164 26.9727L158.059 26.5156L157.883 26.1289Q157.749 25.8805 157.543 25.7359Q157.369 25.6145 157.145 25.5664L156.617 25.5664Q156.007 25.6618 155.613 26.0058Q155.282 26.2956 155.105 26.7617L154.93 27.6758ZM132.861 25.7811Q132.687 25.6571 132.465 25.6016L131.938 25.6016Q131.447 25.6869 131.125 25.9662Q130.916 26.1474 130.777 26.4102Q130.531 26.8672 130.496 27.7109L130.742 27.8867L131.199 28.0977Q131.867 28.3086 132.711 28.2031Q133.094 28.1767 133.293 27.9717Q133.625 27.631 133.449 26.7969Q133.309 26.3047 133.133 26.0586Q133.016 25.8923 132.861 25.7811ZM183.064 25.7811Q182.89 25.6571 182.668 25.6016L182.141 25.6016Q181.65 25.6869 181.328 25.9662Q181.119 26.1474 180.98 26.4102Q180.734 26.8672 180.699 27.7109L180.945 27.8867L181.402 28.0977Q182.07 28.3086 182.914 28.2031Q183.297 28.1767 183.496 27.9717Q183.828 27.631 183.652 26.7969Q183.512 26.3047 183.336 26.0586Q183.22 25.8923 183.064 25.7811ZM216.216 25.7811Q216.043 25.6571 215.82 25.6016L215.293 25.6016Q214.802 25.6869 214.48 25.9662Q214.271 26.1474 214.133 26.4102Q213.887 26.8672 213.852 27.7109L214.098 27.8867L214.555 28.0977Q215.223 28.3086 216.066 28.2031Q216.449 28.1767 216.649 27.9717Q216.98 27.631 216.805 26.7969Q216.664 26.3047 216.488 26.0586Q216.372 25.8923 216.216 25.7811ZM208.533 26.2673Q208.223 26.0259 207.699 26.0586Q207.079 26.1187 206.698 26.4522Q206.409 26.7045 206.258 27.1133Q206.117 27.4648 206.082 27.957L206.012 28.7305L206.082 29.5742Q206.166 30.0543 206.447 30.3361Q206.64 30.5289 206.926 30.6289Q207.383 30.8047 208.051 30.5234Q208.684 30.2422 208.93 29.8203L208.93 26.8672L208.824 26.5859L208.578 26.3047Q208.556 26.2852 208.533 26.2673ZM236.029 31.5957Q235.824 31.3906 235.473 31.332L235.016 31.332Q234.299 31.4117 233.943 31.8121Q233.827 31.9419 233.75 32.1055L233.574 32.668L233.539 33.1953L233.574 33.793Q233.712 34.2757 234.03 34.4879Q234.199 34.6002 234.418 34.6367Q234.664 34.707 234.91 34.707Q235.695 34.5908 236.047 34.1379Q236.121 34.0431 236.176 33.9336L236.352 33.3359L236.387 32.8086L236.352 32.2109L236.246 31.9297L236.105 31.6836Q236.07 31.6367 236.029 31.5957Z" fill="#A29BFEFF"/>
		<rect id="侧边栏" y="54.000000" width="300.000000" height="780.000000" fill="#2B2D42"/>
		<g filter="url(#filter_2_5_dd)">
			<rect id="矩形 2" x="25.000000" y="79.000000" rx="5.000000" width="250.000000" height="32.000000" fill="#3A43A1"/>
		</g>
		<g filter="url(#filter_2_6_dd)">
			<rect id="矩形 2" x="25.000000" y="136.000000" rx="5.000000" width="250.000000" height="32.000000" fill="#31355E"/>
		</g>
		<g filter="url(#filter_2_7_dd)">
			<rect id="矩形 2" x="25.000000" y="193.000000" rx="5.000000" width="250.000000" height="33.000000" fill="#31355E"/>
		</g>
		<g filter="url(#filter_2_8_dd)">
			<rect id="矩形 2" x="25.000000" y="309.000000" rx="5.000000" width="250.000000" height="33.000000" fill="#31355E"/>
		</g>
		<g filter="url(#filter_2_9_dd)">
			<rect id="矩形 2" x="25.000000" y="251.000000" rx="5.000000" width="250.000000" height="33.000000" fill="#31355E"/>
		</g>
		<g filter="url(#filter_2_74_dd)">
			<rect id="矩形 6" x="340.000000" y="415.000000" rx="3.000000" width="960.000000" height="375.000000" fill="#FFFFFF"/>
		</g>
		<path id="矩形 9" d="M362 457L1278 457C1282.42 457 1286 460.582 1286 465C1286 469.418 1282.42 473 1278 473L362 473C357.582 473 354 469.418 354 465C354 460.582 357.582 457 362 457Z" fill-rule="evenodd" fill="#E5E1FD" fill-opacity="0.450000"/>
		<path id="矩形 9" d="M361 507L1277 507C1281.42 507 1285 510.582 1285 515C1285 519.418 1281.42 523 1277 523L361 523C356.582 523 353 519.418 353 515C353 510.582 356.582 507 361 507Z" fill-rule="evenodd" fill="#E5E1FD" fill-opacity="0.450000"/>
		<path id="矩形 9" d="M361 557L1277 557C1281.42 557 1285 560.582 1285 565C1285 569.418 1281.42 573 1277 573L361 573C356.582 573 353 569.418 353 565C353 560.582 356.582 557 361 557Z" fill-rule="evenodd" fill="#E5E1FD" fill-opacity="0.450000"/>
		<path id="矩形 9" d="M361 607L1277 607C1281.42 607 1285 610.582 1285 615C1285 619.418 1281.42 623 1277 623L361 623C356.582 623 353 619.418 353 615C353 610.582 356.582 607 361 607Z" fill-rule="evenodd" fill="#E5E1FD" fill-opacity="0.450000"/>
		<path id="矩形 9" d="M361 657L1277 657C1281.42 657 1285 660.582 1285 665C1285 669.418 1281.42 673 1277 673L361 673C356.582 673 353 669.418 353 665C353 660.582 356.582 657 361 657Z" fill-rule="evenodd" fill="#E5E1FD" fill-opacity="0.450000"/>
		<path id="矩形 9" d="M361 707L1277 707C1281.42 707 1285 710.582 1285 715C1285 719.418 1281.42 723 1277 723L361 723C356.582 723 353 719.418 353 715C353 710.582 356.582 707 361 707Z" fill-rule="evenodd" fill="#E5E1FD" fill-opacity="0.450000"/>
		<path id="矩形 9" d="M362 757L1278 757C1282.42 757 1286 760.582 1286 765C1286 769.418 1282.42 773 1278 773L362 773C357.582 773 354 769.418 354 765C354 760.582 357.582 757 362 757Z" fill-rule="evenodd" fill="#E5E1FD" fill-opacity="0.450000"/>
		<path id="矩形 10" d="M354 703.499C354 703.499 447 597.499 547 576.499C647 555.499 830 623.5 830 623.5C830 623.5 934.604 676.14 1018 663.5C1129.93 646.535 1285 648.499 1285 648.499L1285 772.999L354 772.999L354 703.499Z" fill-rule="evenodd" fill="#1200FF"/>
		<path id="矩形 10" d="M354 636.5C354 636.5 463 532.813 563 501.5C663 470.187 730 549.5 820 549.5C910 549.5 977 512.5 1050 512.5C1123 512.5 1285 549.5 1285 549.5L1285 772.525L354 772.525L354 636.5Z" fill-rule="evenodd" fill="#E5E1FD" fill-opacity="0.800000"/>
		<g filter="url(#filter_2_65_dd)">
			<rect id="矩形 6" x="340.000000" y="270.000000" rx="5.000000" width="960.000000" height="116.000000" fill="#FFFFFF"/>
		</g>
		<rect id="矩形 5" x="365.000000" y="295.000000" rx="5.000000" width="65.000000" height="65.000000" fill="#A29BFE"/>
		<rect id="矩形 7" x="455.000000" y="295.000000" rx="3.000000" width="260.000000" height="25.000000" fill="#A29BFE"/>
		<rect id="矩形 7" x="455.000000" y="335.000000" rx="5.000000" width="820.000000" height="25.000000" fill="#E5E1FD"/>
		<g filter="url(#filter_2_20_dd)">
			<rect id="矩形 6" x="340.000000" y="80.000000" rx="5.000000" width="290.000000" height="160.000000" fill="#FFFFFF"/>
		</g>
		<circle id="椭圆 1" cx="425.000000" cy="160.000000" r="60.000000" fill="#E5E1FD"/>
		<path id="椭圆 1" d="M425 220C410.013 220 396.31 214.505 385.794 205.421C374.45 195.627 367.667 182.514 365.643 168.765C363.454 153.939 366.888 139.58 374.339 127.85C382.371 115.197 394.353 106.571 407.658 102.56C422.005 98.2292 436.712 99.5286 449.404 105.186C463.095 111.283 473.379 121.876 479.29 134.453L425 160L425 220Z" fill-rule="evenodd" fill="#A29BFE"/>
		<circle id="椭圆 1" cx="425.500000" cy="159.500000" r="47.500000" fill="#FFFFFF"/>
		<path id="矩形 7" d="M512 106L566 106C567.657 106 569 107.343 569 109L569 128C569 129.657 567.657 131 566 131L512 131C510.343 131 509 129.657 509 128L509 109C509 107.343 510.343 106 512 106Z" fill-rule="evenodd" fill="#A29BFE"/>
		<rect id="矩形 7" x="509.000000" y="146.000000" rx="3.000000" width="95.000000" height="25.000000" fill="#E5E1FD"/>
		<rect id="矩形 7" x="509.000000" y="186.000000" rx="3.000000" width="95.000000" height="25.000000" fill="#E5E1FD"/>
		<path id="68%" d="M422.69 164.345Q423.951 165.215 426.236 165.215Q428.504 165.215 429.752 164.345Q430.201 164.032 430.489 163.608Q431.004 162.851 431.004 161.744Q431.004 161.005 430.824 160.482Q430.644 159.959 430.345 159.59Q430.109 159.294 429.813 159.08Q429.74 159.027 429.664 158.979Q429.277 158.738 428.864 158.575L428.864 158.5Q429.26 158.32 429.594 158.079Q429.761 157.958 429.905 157.814Q430.049 157.67 430.169 157.503Q430.411 157.169 430.539 156.721Q430.666 156.268 430.666 155.675Q430.666 154.528 430.123 153.771Q429.865 153.411 429.484 153.139Q428.306 152.291 426.236 152.291Q424.114 152.291 422.94 153.139Q422.576 153.402 422.325 153.748Q421.772 154.511 421.772 155.675Q421.772 156.308 421.886 156.756Q422.004 157.204 422.22 157.529Q422.44 157.854 422.725 158.087Q423.015 158.32 423.376 158.5L423.376 158.575Q423.015 158.738 422.664 158.971Q422.312 159.204 422.04 159.573Q421.772 159.942 421.6 160.465Q421.429 160.988 421.429 161.726Q421.429 162.854 421.956 163.618Q422.244 164.036 422.69 164.345ZM413.59 164.947Q414.465 165.18 415.471 165.18Q417.937 165.18 419.07 164.064Q419.222 163.915 419.353 163.75Q420.204 162.679 420.204 160.931Q420.204 159.059 419.277 158.026Q419.228 157.971 419.176 157.919Q418.25 156.989 416.39 156.989Q415.884 156.989 415.3 157.081Q415.185 157.098 415.072 157.126Q414.612 157.237 414.192 157.512L414.122 157.512Q414.24 156.862 414.603 156.408Q414.903 156.034 415.37 155.793Q416.407 155.262 418.372 155.227L418.372 152.326Q416.372 152.326 414.913 152.858Q413.454 153.39 412.518 154.4Q411.582 155.407 411.134 156.892Q410.686 158.377 410.686 160.267Q410.686 161.687 411.055 162.631Q411.424 163.576 412.07 164.143Q412.227 164.281 412.398 164.4Q412.929 164.768 413.59 164.947ZM434.255 159.032Q434.752 159.186 435.38 159.186Q436.008 159.186 436.523 159.032Q436.785 158.954 437.008 158.812Q437.221 158.676 437.397 158.483Q437.757 158.087 437.946 157.433Q438.135 156.773 438.135 155.75Q438.135 154.739 437.946 154.084Q437.757 153.425 437.397 153.029Q437.221 152.836 437.008 152.7Q436.785 152.559 436.523 152.48Q436.008 152.326 435.38 152.326Q434.752 152.326 434.255 152.48Q434.058 152.541 433.883 152.64Q433.616 152.79 433.398 153.029Q433.038 153.425 432.849 154.084Q432.66 154.739 432.66 155.75Q432.66 156.773 432.849 157.433Q433.038 158.087 433.398 158.483Q433.616 158.722 433.883 158.873Q434.058 158.971 434.255 159.032ZM443.769 152.506L441.66 152.506L434.677 165L436.764 165L443.769 152.506ZM435.723 157.477Q435.578 157.547 435.38 157.547Q435.182 157.547 435.046 157.477Q434.91 157.402 434.831 157.204Q434.752 157.006 434.712 156.659Q434.677 156.308 434.677 155.75Q434.677 155.191 434.712 154.84Q434.752 154.488 434.831 154.291Q434.91 154.093 435.046 154.014Q435.182 153.93 435.38 153.93Q435.578 153.93 435.723 154.014Q435.724 154.014 435.725 154.015Q435.869 154.095 435.947 154.291Q436.026 154.488 436.061 154.84Q436.101 155.191 436.101 155.75Q436.101 156.308 436.061 156.659Q436.026 157.006 435.947 157.204Q435.869 157.398 435.728 157.474Q435.726 157.475 435.723 157.477ZM427.353 156.98Q426.992 157.332 426.236 157.332Q425.481 157.332 425.103 156.98Q424.994 156.879 424.917 156.758Q424.725 156.458 424.725 156.035Q424.725 155.532 424.975 155.258Q425.046 155.18 425.138 155.121Q425.551 154.849 426.236 154.849Q426.922 154.849 427.317 155.139Q427.413 155.208 427.486 155.296Q427.713 155.572 427.713 156.035Q427.713 156.487 427.504 156.799Q427.439 156.896 427.353 156.98ZM441.866 165.026Q442.363 165.18 442.996 165.18Q443.624 165.18 444.134 165.026Q444.396 164.948 444.619 164.806Q444.832 164.671 445.008 164.477Q445.369 164.082 445.558 163.427Q445.747 162.768 445.747 161.744Q445.747 160.733 445.558 160.078Q445.369 159.419 445.008 159.023Q444.832 158.83 444.619 158.694Q444.396 158.553 444.134 158.474Q443.624 158.32 442.996 158.32Q442.363 158.32 441.866 158.474Q441.686 158.53 441.524 158.619Q441.242 158.773 441.014 159.023Q440.653 159.419 440.464 160.078Q440.276 160.733 440.276 161.744Q440.276 162.768 440.464 163.427Q440.653 164.082 441.014 164.477Q441.242 164.728 441.524 164.882Q441.686 164.97 441.866 165.026ZM416.56 162.213Q416.11 162.587 415.348 162.587Q414.688 162.587 414.335 162.258Q414.272 162.199 414.219 162.13Q414.179 162.078 414.145 162.023Q413.872 161.592 413.872 160.988Q413.872 160.663 413.942 160.377Q414.007 160.109 414.166 159.919Q414.179 159.904 414.192 159.889Q414.373 159.691 414.68 159.573Q414.988 159.454 415.454 159.454Q416.31 159.454 416.714 159.881Q417.075 160.264 417.075 160.988Q417.075 161.576 416.796 161.962Q416.716 162.072 416.614 162.166Q416.588 162.19 416.56 162.213ZM427.476 162.275Q427.045 162.552 426.236 162.552Q425.406 162.552 424.975 162.275Q424.863 162.202 424.78 162.104Q424.544 161.826 424.544 161.348Q424.544 160.816 424.799 160.471Q424.889 160.348 425.01 160.25Q425.028 160.235 425.046 160.221Q425.509 159.872 426.236 159.872Q426.865 159.872 427.306 160.159Q427.371 160.201 427.432 160.25Q427.57 160.358 427.668 160.496Q427.911 160.835 427.911 161.348Q427.911 161.82 427.678 162.098Q427.593 162.2 427.476 162.275ZM443.334 163.471Q443.193 163.541 442.996 163.541Q442.798 163.541 442.662 163.471Q442.526 163.396 442.442 163.198Q442.363 163 442.328 162.653Q442.293 162.302 442.293 161.744Q442.293 161.186 442.328 160.834Q442.363 160.482 442.442 160.285Q442.526 160.087 442.662 160.008Q442.798 159.924 442.996 159.924Q443.193 159.924 443.334 160.008Q443.479 160.087 443.567 160.285Q443.659 160.482 443.694 160.834Q443.734 161.186 443.734 161.744Q443.734 162.302 443.694 162.653Q443.659 163 443.567 163.198Q443.479 163.396 443.334 163.471Z" fill="#A29BFEFF"/>
		<g filter="url(#filter_2_38_dd)">
			<rect id="矩形 6" x="675.000000" y="80.000000" rx="5.000000" width="290.000000" height="160.000000" fill="#FFFFFF"/>
		</g>
		<circle id="椭圆 1" cx="760.000000" cy="160.000000" r="60.000000" fill="#E5E1FD"/>
		<path id="椭圆 1" d="M760 220C745.013 220 731.31 214.505 720.794 205.421C709.45 195.627 702.667 182.514 700.643 168.765C698.454 153.939 701.888 139.58 709.339 127.85C717.371 115.197 729.353 106.571 742.658 102.56C757.005 98.2292 771.712 99.5286 784.404 105.186C798.095 111.283 808.379 121.876 814.29 134.453L760 160L760 220Z" fill-rule="evenodd" fill="#A29BFE"/>
		<circle id="椭圆 1" cx="760.500000" cy="159.500000" r="47.500000" fill="#FFFFFF"/>
		<rect id="矩形 7" x="844.000000" y="106.000000" rx="3.000000" width="60.000000" height="25.000000" fill="#A29BFE"/>
		<rect id="矩形 7" x="844.000000" y="146.000000" rx="3.000000" width="95.000000" height="25.000000" fill="#E5E1FD"/>
		<rect id="矩形 7" x="844.000000" y="186.000000" rx="3.000000" width="95.000000" height="25.000000" fill="#E5E1FD"/>
		<path id="68%" d="M757.69 164.345Q758.951 165.215 761.236 165.215Q763.504 165.215 764.752 164.345Q765.201 164.032 765.489 163.608Q766.004 162.851 766.004 161.744Q766.004 161.005 765.824 160.482Q765.644 159.959 765.345 159.59Q765.109 159.294 764.813 159.08Q764.74 159.027 764.664 158.979Q764.277 158.738 763.864 158.575L763.864 158.5Q764.26 158.32 764.594 158.079Q764.761 157.958 764.905 157.814Q765.049 157.67 765.169 157.503Q765.411 157.169 765.539 156.721Q765.666 156.268 765.666 155.675Q765.666 154.528 765.123 153.771Q764.865 153.411 764.484 153.139Q763.306 152.291 761.236 152.291Q759.114 152.291 757.94 153.139Q757.576 153.402 757.325 153.748Q756.772 154.511 756.772 155.675Q756.772 156.308 756.886 156.756Q757.004 157.204 757.22 157.529Q757.44 157.854 757.725 158.087Q758.015 158.32 758.376 158.5L758.376 158.575Q758.015 158.738 757.664 158.971Q757.312 159.204 757.04 159.573Q756.772 159.942 756.6 160.465Q756.429 160.988 756.429 161.726Q756.429 162.854 756.956 163.618Q757.244 164.036 757.69 164.345ZM748.59 164.947Q749.465 165.18 750.471 165.18Q752.937 165.18 754.07 164.064Q754.222 163.915 754.353 163.75Q755.204 162.679 755.204 160.931Q755.204 159.059 754.277 158.026Q754.228 157.971 754.176 157.919Q753.25 156.989 751.39 156.989Q750.884 156.989 750.3 157.081Q750.185 157.098 750.072 157.126Q749.612 157.237 749.192 157.512L749.122 157.512Q749.24 156.862 749.603 156.408Q749.903 156.034 750.37 155.793Q751.407 155.262 753.372 155.227L753.372 152.326Q751.372 152.326 749.913 152.858Q748.454 153.39 747.518 154.4Q746.582 155.407 746.134 156.892Q745.686 158.377 745.686 160.267Q745.686 161.687 746.055 162.631Q746.424 163.576 747.07 164.143Q747.227 164.281 747.398 164.4Q747.929 164.768 748.59 164.947ZM769.255 159.032Q769.752 159.186 770.38 159.186Q771.008 159.186 771.523 159.032Q771.785 158.954 772.008 158.812Q772.221 158.676 772.397 158.483Q772.757 158.087 772.946 157.433Q773.135 156.773 773.135 155.75Q773.135 154.739 772.946 154.084Q772.757 153.425 772.397 153.029Q772.221 152.836 772.008 152.7Q771.785 152.559 771.523 152.48Q771.008 152.326 770.38 152.326Q769.752 152.326 769.255 152.48Q769.058 152.541 768.883 152.64Q768.616 152.79 768.398 153.029Q768.038 153.425 767.849 154.084Q767.66 154.739 767.66 155.75Q767.66 156.773 767.849 157.433Q768.038 158.087 768.398 158.483Q768.616 158.722 768.883 158.873Q769.058 158.971 769.255 159.032ZM778.769 152.506L776.66 152.506L769.677 165L771.764 165L778.769 152.506ZM770.723 157.477Q770.578 157.547 770.38 157.547Q770.182 157.547 770.046 157.477Q769.91 157.402 769.831 157.204Q769.752 157.006 769.712 156.659Q769.677 156.308 769.677 155.75Q769.677 155.191 769.712 154.84Q769.752 154.488 769.831 154.291Q769.91 154.093 770.046 154.014Q770.182 153.93 770.38 153.93Q770.578 153.93 770.723 154.014Q770.724 154.014 770.726 154.015Q770.869 154.095 770.947 154.291Q771.026 154.488 771.061 154.84Q771.101 155.191 771.101 155.75Q771.101 156.308 771.061 156.659Q771.026 157.006 770.947 157.204Q770.869 157.398 770.728 157.474Q770.726 157.475 770.723 157.477ZM762.353 156.98Q761.992 157.332 761.236 157.332Q760.481 157.332 760.103 156.98Q759.994 156.879 759.917 156.758Q759.725 156.458 759.725 156.035Q759.725 155.532 759.975 155.258Q760.046 155.18 760.138 155.121Q760.551 154.849 761.236 154.849Q761.922 154.849 762.317 155.139Q762.413 155.208 762.486 155.296Q762.713 155.572 762.713 156.035Q762.713 156.487 762.504 156.799Q762.438 156.896 762.353 156.98ZM776.866 165.026Q777.363 165.18 777.996 165.18Q778.624 165.18 779.134 165.026Q779.396 164.948 779.619 164.806Q779.832 164.671 780.008 164.477Q780.369 164.082 780.558 163.427Q780.747 162.768 780.747 161.744Q780.747 160.733 780.558 160.078Q780.369 159.419 780.008 159.023Q779.832 158.83 779.619 158.694Q779.396 158.553 779.134 158.474Q778.624 158.32 777.996 158.32Q777.363 158.32 776.866 158.474Q776.686 158.53 776.524 158.619Q776.242 158.773 776.014 159.023Q775.653 159.419 775.464 160.078Q775.276 160.733 775.276 161.744Q775.276 162.768 775.464 163.427Q775.653 164.082 776.014 164.477Q776.242 164.728 776.524 164.882Q776.686 164.97 776.866 165.026ZM751.56 162.213Q751.11 162.587 750.348 162.587Q749.688 162.587 749.335 162.258Q749.272 162.199 749.219 162.13Q749.179 162.078 749.144 162.023Q748.872 161.592 748.872 160.988Q748.872 160.663 748.942 160.377Q749.007 160.109 749.166 159.919Q749.179 159.904 749.192 159.889Q749.373 159.691 749.68 159.573Q749.988 159.454 750.454 159.454Q751.31 159.454 751.714 159.881Q752.075 160.264 752.075 160.988Q752.075 161.576 751.796 161.962Q751.716 162.072 751.614 162.166Q751.588 162.19 751.56 162.213ZM762.476 162.275Q762.045 162.552 761.236 162.552Q760.406 162.552 759.975 162.275Q759.863 162.202 759.78 162.104Q759.544 161.826 759.544 161.348Q759.544 160.816 759.799 160.471Q759.889 160.348 760.01 160.25Q760.028 160.235 760.046 160.221Q760.509 159.872 761.236 159.872Q761.865 159.872 762.306 160.159Q762.371 160.201 762.432 160.25Q762.57 160.358 762.668 160.496Q762.911 160.835 762.911 161.348Q762.911 161.82 762.678 162.098Q762.593 162.2 762.476 162.275ZM778.334 163.471Q778.193 163.541 777.996 163.541Q777.798 163.541 777.662 163.471Q777.526 163.396 777.442 163.198Q777.363 163 777.328 162.653Q777.293 162.302 777.293 161.744Q777.293 161.186 777.328 160.834Q777.363 160.482 777.442 160.285Q777.526 160.087 777.662 160.008Q777.798 159.924 777.996 159.924Q778.193 159.924 778.334 160.008Q778.479 160.087 778.567 160.285Q778.659 160.482 778.694 160.834Q778.734 161.186 778.734 161.744Q778.734 162.302 778.694 162.653Q778.659 163 778.567 163.198Q778.479 163.396 778.334 163.471Z" fill="#A29BFEFF"/>
		<g filter="url(#filter_2_47_dd)">
			<rect id="矩形 6" x="1010.000000" y="80.000000" rx="5.000000" width="290.000000" height="160.000000" fill="#FFFFFF"/>
		</g>
		<circle id="椭圆 1" cx="1095.000000" cy="160.000000" r="60.000000" fill="#E5E1FD"/>
		<path id="椭圆 1" d="M1095 220C1080.01 220 1066.31 214.505 1055.79 205.421C1044.45 195.627 1037.67 182.514 1035.64 168.765C1033.45 153.939 1036.89 139.58 1044.34 127.85C1052.37 115.197 1064.35 106.571 1077.66 102.56C1092.01 98.2292 1106.71 99.5286 1119.4 105.186C1133.1 111.283 1143.38 121.876 1149.29 134.453L1095 160L1095 220Z" fill-rule="evenodd" fill="#A29BFE"/>
		<circle id="椭圆 1" cx="1095.500000" cy="159.500000" r="47.500000" fill="#FFFFFF"/>
		<rect id="矩形 7" x="1179.000000" y="106.000000" rx="3.000000" width="60.000000" height="25.000000" fill="#A29BFE"/>
		<rect id="矩形 7" x="1179.000000" y="146.000000" rx="3.000000" width="95.000000" height="25.000000" fill="#E5E1FD"/>
		<rect id="矩形 7" x="1179.000000" y="186.000000" rx="3.000000" width="95.000000" height="25.000000" fill="#E5E1FD"/>
		<path id="68%" d="M1092.69 164.345Q1093.95 165.215 1096.24 165.215Q1098.5 165.215 1099.75 164.345Q1100.2 164.032 1100.49 163.608Q1101 162.851 1101 161.744Q1101 161.005 1100.82 160.482Q1100.64 159.959 1100.35 159.59Q1100.11 159.294 1099.81 159.08Q1099.74 159.027 1099.66 158.979Q1099.28 158.738 1098.86 158.575L1098.86 158.5Q1099.26 158.32 1099.59 158.079Q1099.76 157.958 1099.9 157.814Q1100.05 157.67 1100.17 157.503Q1100.41 157.169 1100.54 156.721Q1100.67 156.268 1100.67 155.675Q1100.67 154.528 1100.12 153.771Q1099.86 153.411 1099.48 153.139Q1098.31 152.291 1096.24 152.291Q1094.11 152.291 1092.94 153.139Q1092.58 153.402 1092.32 153.748Q1091.77 154.511 1091.77 155.675Q1091.77 156.308 1091.89 156.756Q1092 157.204 1092.22 157.529Q1092.44 157.854 1092.73 158.087Q1093.02 158.32 1093.38 158.5L1093.38 158.575Q1093.02 158.738 1092.66 158.971Q1092.31 159.204 1092.04 159.573Q1091.77 159.942 1091.6 160.465Q1091.43 160.988 1091.43 161.726Q1091.43 162.854 1091.96 163.618Q1092.24 164.036 1092.69 164.345ZM1083.59 164.947Q1084.46 165.18 1085.47 165.18Q1087.94 165.18 1089.07 164.064Q1089.22 163.915 1089.35 163.75Q1090.2 162.679 1090.2 160.931Q1090.2 159.059 1089.28 158.026Q1089.23 157.971 1089.18 157.919Q1088.25 156.989 1086.39 156.989Q1085.88 156.989 1085.3 157.081Q1085.18 157.098 1085.07 157.126Q1084.61 157.237 1084.19 157.512L1084.12 157.512Q1084.24 156.862 1084.6 156.408Q1084.9 156.034 1085.37 155.793Q1086.41 155.262 1088.37 155.227L1088.37 152.326Q1086.37 152.326 1084.91 152.858Q1083.45 153.39 1082.52 154.4Q1081.58 155.407 1081.13 156.892Q1080.69 158.377 1080.69 160.267Q1080.69 161.687 1081.05 162.631Q1081.42 163.576 1082.07 164.143Q1082.23 164.281 1082.4 164.4Q1082.93 164.768 1083.59 164.947ZM1104.26 159.032Q1104.75 159.186 1105.38 159.186Q1106.01 159.186 1106.52 159.032Q1106.79 158.954 1107.01 158.812Q1107.22 158.676 1107.4 158.483Q1107.76 158.087 1107.95 157.433Q1108.14 156.773 1108.14 155.75Q1108.14 154.739 1107.95 154.084Q1107.76 153.425 1107.4 153.029Q1107.22 152.836 1107.01 152.7Q1106.79 152.559 1106.52 152.48Q1106.01 152.326 1105.38 152.326Q1104.75 152.326 1104.26 152.48Q1104.06 152.541 1103.88 152.64Q1103.62 152.79 1103.4 153.029Q1103.04 153.425 1102.85 154.084Q1102.66 154.739 1102.66 155.75Q1102.66 156.773 1102.85 157.433Q1103.04 158.087 1103.4 158.483Q1103.62 158.722 1103.88 158.873Q1104.06 158.971 1104.26 159.032ZM1113.77 152.506L1111.66 152.506L1104.68 165L1106.76 165L1113.77 152.506ZM1105.72 157.477Q1105.58 157.547 1105.38 157.547Q1105.18 157.547 1105.05 157.477Q1104.91 157.402 1104.83 157.204Q1104.75 157.006 1104.71 156.659Q1104.68 156.308 1104.68 155.75Q1104.68 155.191 1104.71 154.84Q1104.75 154.488 1104.83 154.291Q1104.91 154.093 1105.05 154.014Q1105.18 153.93 1105.38 153.93Q1105.58 153.93 1105.72 154.014Q1105.72 154.014 1105.73 154.015Q1105.87 154.095 1105.95 154.291Q1106.03 154.488 1106.06 154.84Q1106.1 155.191 1106.1 155.75Q1106.1 156.308 1106.06 156.659Q1106.03 157.006 1105.95 157.204Q1105.87 157.398 1105.73 157.474Q1105.73 157.475 1105.72 157.477ZM1097.35 156.98Q1096.99 157.332 1096.24 157.332Q1095.48 157.332 1095.1 156.98Q1094.99 156.879 1094.92 156.758Q1094.72 156.458 1094.72 156.035Q1094.72 155.532 1094.98 155.258Q1095.05 155.18 1095.14 155.121Q1095.55 154.849 1096.24 154.849Q1096.92 154.849 1097.32 155.139Q1097.41 155.208 1097.49 155.296Q1097.71 155.572 1097.71 156.035Q1097.71 156.487 1097.5 156.799Q1097.44 156.896 1097.35 156.98ZM1111.87 165.026Q1112.36 165.18 1113 165.18Q1113.62 165.18 1114.13 165.026Q1114.4 164.948 1114.62 164.806Q1114.83 164.671 1115.01 164.477Q1115.37 164.082 1115.56 163.427Q1115.75 162.768 1115.75 161.744Q1115.75 160.733 1115.56 160.078Q1115.37 159.419 1115.01 159.023Q1114.83 158.83 1114.62 158.694Q1114.4 158.553 1114.13 158.474Q1113.62 158.32 1113 158.32Q1112.36 158.32 1111.87 158.474Q1111.69 158.53 1111.52 158.619Q1111.24 158.773 1111.01 159.023Q1110.65 159.419 1110.46 160.078Q1110.28 160.733 1110.28 161.744Q1110.28 162.768 1110.46 163.427Q1110.65 164.082 1111.01 164.477Q1111.24 164.728 1111.52 164.882Q1111.69 164.97 1111.87 165.026ZM1086.56 162.213Q1086.11 162.587 1085.35 162.587Q1084.69 162.587 1084.33 162.258Q1084.27 162.199 1084.22 162.13Q1084.18 162.078 1084.14 162.023Q1083.87 161.592 1083.87 160.988Q1083.87 160.663 1083.94 160.377Q1084.01 160.109 1084.17 159.919Q1084.18 159.904 1084.19 159.889Q1084.37 159.691 1084.68 159.573Q1084.99 159.454 1085.45 159.454Q1086.31 159.454 1086.71 159.881Q1087.08 160.264 1087.08 160.988Q1087.08 161.576 1086.8 161.962Q1086.72 162.072 1086.61 162.166Q1086.59 162.19 1086.56 162.213ZM1097.48 162.275Q1097.04 162.552 1096.24 162.552Q1095.41 162.552 1094.98 162.275Q1094.86 162.202 1094.78 162.104Q1094.54 161.826 1094.54 161.348Q1094.54 160.816 1094.8 160.471Q1094.89 160.348 1095.01 160.25Q1095.03 160.235 1095.05 160.221Q1095.51 159.872 1096.24 159.872Q1096.86 159.872 1097.31 160.159Q1097.37 160.201 1097.43 160.25Q1097.57 160.358 1097.67 160.496Q1097.91 160.835 1097.91 161.348Q1097.91 161.82 1097.68 162.098Q1097.59 162.2 1097.48 162.275ZM1113.33 163.471Q1113.19 163.541 1113 163.541Q1112.8 163.541 1112.66 163.471Q1112.53 163.396 1112.44 163.198Q1112.36 163 1112.33 162.653Q1112.29 162.302 1112.29 161.744Q1112.29 161.186 1112.33 160.834Q1112.36 160.482 1112.44 160.285Q1112.53 160.087 1112.66 160.008Q1112.8 159.924 1113 159.924Q1113.19 159.924 1113.33 160.008Q1113.48 160.087 1113.57 160.285Q1113.66 160.482 1113.69 160.834Q1113.73 161.186 1113.73 161.744Q1113.73 162.302 1113.69 162.653Q1113.66 163 1113.57 163.198Q1113.48 163.396 1113.33 163.471Z" fill="#A29BFEFF"/>
	</g>
	<defs>
		<filter id="filter_2_5_dd" x="21.000000" y="75.000000" width="258.000000" height="40.000000" filterUnits="userSpaceOnUse" color-interpolation-filters="sRGB">
			<feFlood flood-opacity="0" result="BackgroundImageFix"/>
			<feColorMatrix in="SourceAlpha" type="matrix" values="0 0 0 0 0 0 0 0 0 0 0 0 0 0 0 0 0 0 127 0"/>
			<feOffset dx="0" dy="0"/>
			<feGaussianBlur stdDeviation="1.33333"/>
			<feColorMatrix type="matrix" values="0 0 0 0 0.56471 0 0 0 0 0.53333 0 0 0 0 1 0 0 0 0.25 0"/>
			<feBlend mode="normal" in2="BackgroundImageFix" result="effect_dropShadow_1"/>
			<feBlend mode="normal" in="SourceGraphic" in2="effect_dropShadow_1" result="shape"/>
		</filter>
		<filter id="filter_2_6_dd" x="21.000000" y="132.000000" width="258.000000" height="40.000000" filterUnits="userSpaceOnUse" color-interpolation-filters="sRGB">
			<feFlood flood-opacity="0" result="BackgroundImageFix"/>
			<feColorMatrix in="SourceAlpha" type="matrix" values="0 0 0 0 0 0 0 0 0 0 0 0 0 0 0 0 0 0 127 0"/>
			<feOffset dx="0" dy="0"/>
			<feGaussianBlur stdDeviation="1.33333"/>
			<feColorMatrix type="matrix" values="0 0 0 0 0.56471 0 0 0 0 0.53333 0 0 0 0 1 0 0 0 0.25 0"/>
			<feBlend mode="normal" in2="BackgroundImageFix" result="effect_dropShadow_1"/>
			<feBlend mode="normal" in="SourceGraphic" in2="effect_dropShadow_1" result="shape"/>
		</filter>
		<filter id="filter_2_7_dd" x="21.000000" y="189.000000" width="258.000000" height="41.000000" filterUnits="userSpaceOnUse" color-interpolation-filters="sRGB">
			<feFlood flood-opacity="0" result="BackgroundImageFix"/>
			<feColorMatrix in="SourceAlpha" type="matrix" values="0 0 0 0 0 0 0 0 0 0 0 0 0 0 0 0 0 0 127 0"/>
			<feOffset dx="0" dy="0"/>
			<feGaussianBlur stdDeviation="1.33333"/>
			<feColorMatrix type="matrix" values="0 0 0 0 0.56471 0 0 0 0 0.53333 0 0 0 0 1 0 0 0 0.25 0"/>
			<feBlend mode="normal" in2="BackgroundImageFix" result="effect_dropShadow_1"/>
			<feBlend mode="normal" in="SourceGraphic" in2="effect_dropShadow_1" result="shape"/>
		</filter>
		<filter id="filter_2_8_dd" x="21.000000" y="305.000000" width="258.000000" height="41.000000" filterUnits="userSpaceOnUse" color-interpolation-filters="sRGB">
			<feFlood flood-opacity="0" result="BackgroundImageFix"/>
			<feColorMatrix in="SourceAlpha" type="matrix" values="0 0 0 0 0 0 0 0 0 0 0 0 0 0 0 0 0 0 127 0"/>
			<feOffset dx="0" dy="0"/>
			<feGaussianBlur stdDeviation="1.33333"/>
			<feColorMatrix type="matrix" values="0 0 0 0 0.56471 0 0 0 0 0.53333 0 0 0 0 1 0 0 0 0.25 0"/>
			<feBlend mode="normal" in2="BackgroundImageFix" result="effect_dropShadow_1"/>
			<feBlend mode="normal" in="SourceGraphic" in2="effect_dropShadow_1" result="shape"/>
		</filter>
		<filter id="filter_2_9_dd" x="21.000000" y="247.000000" width="258.000000" height="41.000000" filterUnits="userSpaceOnUse" color-interpolation-filters="sRGB">
			<feFlood flood-opacity="0" result="BackgroundImageFix"/>
			<feColorMatrix in="SourceAlpha" type="matrix" values="0 0 0 0 0 0 0 0 0 0 0 0 0 0 0 0 0 0 127 0"/>
			<feOffset dx="0" dy="0"/>
			<feGaussianBlur stdDeviation="1.33333"/>
			<feColorMatrix type="matrix" values="0 0 0 0 0.56471 0 0 0 0 0.53333 0 0 0 0 1 0 0 0 0.25 0"/>
			<feBlend mode="normal" in2="BackgroundImageFix" result="effect_dropShadow_1"/>
			<feBlend mode="normal" in="SourceGraphic" in2="effect_dropShadow_1" result="shape"/>
		</filter>
		<filter id="filter_2_74_dd" x="330.000000" y="405.000000" width="980.000000" height="395.000000" filterUnits="userSpaceOnUse" color-interpolation-filters="sRGB">
			<feFlood flood-opacity="0" result="BackgroundImageFix"/>
			<feColorMatrix in="SourceAlpha" type="matrix" values="0 0 0 0 0 0 0 0 0 0 0 0 0 0 0 0 0 0 127 0"/>
			<feOffset dx="0" dy="0"/>
			<feGaussianBlur stdDeviation="3.33333"/>
			<feColorMatrix type="matrix" values="0 0 0 0 0 0 0 0 0 0 0 0 0 0 0 0 0 0 0.25 0"/>
			<feBlend mode="normal" in2="BackgroundImageFix" result="effect_dropShadow_1"/>
			<feBlend mode="normal" in="SourceGraphic" in2="effect_dropShadow_1" result="shape"/>
		</filter>
		<filter id="filter_2_65_dd" x="330.000000" y="260.000000" width="980.000000" height="136.000000" filterUnits="userSpaceOnUse" color-interpolation-filters="sRGB">
			<feFlood flood-opacity="0" result="BackgroundImageFix"/>
			<feColorMatrix in="SourceAlpha" type="matrix" values="0 0 0 0 0 0 0 0 0 0 0 0 0 0 0 0 0 0 127 0"/>
			<feOffset dx="0" dy="0"/>
			<feGaussianBlur stdDeviation="3.33333"/>
			<feColorMatrix type="matrix" values="0 0 0 0 0 0 0 0 0 0 0 0 0 0 0 0 0 0 0.25 0"/>
			<feBlend mode="normal" in2="BackgroundImageFix" result="effect_dropShadow_1"/>
			<feBlend mode="normal" in="SourceGraphic" in2="effect_dropShadow_1" result="shape"/>
		</filter>
		<filter id="filter_2_20_dd" x="330.000000" y="70.000000" width="310.000000" height="180.000000" filterUnits="userSpaceOnUse" color-interpolation-filters="sRGB">
			<feFlood flood-opacity="0" result="BackgroundImageFix"/>
			<feColorMatrix in="SourceAlpha" type="matrix" values="0 0 0 0 0 0 0 0 0 0 0 0 0 0 0 0 0 0 127 0"/>
			<feOffset dx="0" dy="0"/>
			<feGaussianBlur stdDeviation="3.33333"/>
			<feColorMatrix type="matrix" values="0 0 0 0 0 0 0 0 0 0 0 0 0 0 0 0 0 0 0.25 0"/>
			<feBlend mode="normal" in2="BackgroundImageFix" result="effect_dropShadow_1"/>
			<feBlend mode="normal" in="SourceGraphic" in2="effect_dropShadow_1" result="shape"/>
		</filter>
		<filter id="filter_2_38_dd" x="665.000000" y="70.000000" width="310.000000" height="180.000000" filterUnits="userSpaceOnUse" color-interpolation-filters="sRGB">
			<feFlood flood-opacity="0" result="BackgroundImageFix"/>
			<feColorMatrix in="SourceAlpha" type="matrix" values="0 0 0 0 0 0 0 0 0 0 0 0 0 0 0 0 0 0 127 0"/>
			<feOffset dx="0" dy="0"/>
			<feGaussianBlur stdDeviation="3.33333"/>
			<feColorMatrix type="matrix" values="0 0 0 0 0 0 0 0 0 0 0 0 0 0 0 0 0 0 0.25 0"/>
			<feBlend mode="normal" in2="BackgroundImageFix" result="effect_dropShadow_1"/>
			<feBlend mode="normal" in="SourceGraphic" in2="effect_dropShadow_1" result="shape"/>
		</filter>
		<filter id="filter_2_47_dd" x="1000.000000" y="70.000000" width="310.000000" height="180.000000" filterUnits="userSpaceOnUse" color-interpolation-filters="sRGB">
			<feFlood flood-opacity="0" result="BackgroundImageFix"/>
			<feColorMatrix in="SourceAlpha" type="matrix" values="0 0 0 0 0 0 0 0 0 0 0 0 0 0 0 0 0 0 127 0"/>
			<feOffset dx="0" dy="0"/>
			<feGaussianBlur stdDeviation="3.33333"/>
			<feColorMatrix type="matrix" values="0 0 0 0 0 0 0 0 0 0 0 0 0 0 0 0 0 0 0.25 0"/>
			<feBlend mode="normal" in2="BackgroundImageFix" result="effect_dropShadow_1"/>
			<feBlend mode="normal" in="SourceGraphic" in2="effect_dropShadow_1" result="shape"/>
		</filter>
		<clipPath id="clip2_2">
			<rect id="background-image" rx="10.000000" width="1340.000000" height="820.000000" fill="white"/>
		</clipPath>
	</defs>
</svg>
