<svg width="1340.000000" height="820.000000" viewBox="0 0 1340 820" fill="none" xmlns="http://www.w3.org/2000/svg" xmlns:xlink="http://www.w3.org/1999/xlink">
	<rect id="background-image" rx="10.000000" width="1340.000000" height="820.000000" fill="#F5F5F5"/>
	<g clip-path="url(#clip2_2)">
		<rect id="nav" y="-1.000000" width="1339.000000" height="55.000000" fill="#6C5CE7"/>
		<rect id="矩形 3" x="24.000000" y="19.000000" rx="7.500000" width="15.000000" height="15.000000" fill="#FD873B"/>
		<rect id="矩形 3" x="86.000000" y="19.000000" rx="7.500000" width="15.000000" height="15.000000" fill="#91DD9D"/>
		<rect id="矩形 3" x="55.000000" y="19.000000" rx="7.500000" width="15.000000" height="15.000000" fill="#FFCD8A"/>
		<rect id="矩形 4" x="936.000000" y="12.000000" rx="15.000000" width="232.000000" height="30.000000" fill="#A29BFE"/>
		<rect id="矩形 5" x="1283.000000" y="12.000000" rx="5.000000" width="30.000000" height="30.000000" fill="#A29BFE"/>
		<rect id="矩形 5" x="1184.000000" y="12.000000" rx="5.000000" width="30.000000" height="30.000000" fill="#A29BFE"/>
		<rect id="矩形 5" x="1233.000000" y="12.000000" rx="5.000000" width="30.000000" height="30.000000" fill="#A29BFE"/>
		<rect id="侧边栏" y="54.000000" width="300.000000" height="780.000000" fill="#2B2D42"/>
		<g filter="url(#filter_2_5_dd)">
			<rect id="矩形 2" x="25.000000" y="79.000000" rx="5.000000" width="250.000000" height="32.000000" fill="#3A43A1"/>
		</g>
		<g filter="url(#filter_2_6_dd)">
			<rect id="矩形 2" x="25.000000" y="136.000000" rx="5.000000" width="250.000000" height="32.000000" fill="#31355E"/>
		</g>
		<g filter="url(#filter_2_7_dd)">
			<rect id="矩形 2" x="25.000000" y="193.000000" rx="5.000000" width="250.000000" height="33.000000" fill="#31355E"/>
		</g>
		<g filter="url(#filter_2_8_dd)">
			<rect id="矩形 2" x="25.000000" y="309.000000" rx="5.000000" width="250.000000" height="33.000000" fill="#31355E"/>
		</g>
		<g filter="url(#filter_2_9_dd)">
			<rect id="矩形 2" x="25.000000" y="251.000000" rx="5.000000" width="250.000000" height="33.000000" fill="#31355E"/>
		</g>
		<g filter="url(#filter_2_74_dd)">
			<rect id="矩形 6" x="340.000000" y="415.000000" rx="3.000000" width="960.000000" height="375.000000" fill="#FFFFFF"/>
		</g>
		<path id="矩形 9" d="M362 457L1278 457C1282.42 457 1286 460.582 1286 465C1286 469.418 1282.42 473 1278 473L362 473C357.582 473 354 469.418 354 465C354 460.582 357.582 457 362 457Z" fill-rule="evenodd" fill="#E5E1FD" fill-opacity="0.450000"/>
		<path id="矩形 9" d="M361 507L1277 507C1281.42 507 1285 510.582 1285 515C1285 519.418 1281.42 523 1277 523L361 523C356.582 523 353 519.418 353 515C353 510.582 356.582 507 361 507Z" fill-rule="evenodd" fill="#E5E1FD" fill-opacity="0.450000"/>
		<path id="矩形 9" d="M361 557L1277 557C1281.42 557 1285 560.582 1285 565C1285 569.418 1281.42 573 1277 573L361 573C356.582 573 353 569.418 353 565C353 560.582 356.582 557 361 557Z" fill-rule="evenodd" fill="#E5E1FD" fill-opacity="0.450000"/>
		<path id="矩形 9" d="M361 607L1277 607C1281.42 607 1285 610.582 1285 615C1285 619.418 1281.42 623 1277 623L361 623C356.582 623 353 619.418 353 615C353 610.582 356.582 607 361 607Z" fill-rule="evenodd" fill="#E5E1FD" fill-opacity="0.450000"/>
		<path id="矩形 9" d="M361 657L1277 657C1281.42 657 1285 660.582 1285 665C1285 669.418 1281.42 673 1277 673L361 673C356.582 673 353 669.418 353 665C353 660.582 356.582 657 361 657Z" fill-rule="evenodd" fill="#E5E1FD" fill-opacity="0.450000"/>
		<path id="矩形 9" d="M361 707L1277 707C1281.42 707 1285 710.582 1285 715C1285 719.418 1281.42 723 1277 723L361 723C356.582 723 353 719.418 353 715C353 710.582 356.582 707 361 707Z" fill-rule="evenodd" fill="#E5E1FD" fill-opacity="0.450000"/>
		<path id="矩形 9" d="M362 757L1278 757C1282.42 757 1286 760.582 1286 765C1286 769.418 1282.42 773 1278 773L362 773C357.582 773 354 769.418 354 765C354 760.582 357.582 757 362 757Z" fill-rule="evenodd" fill="#E5E1FD" fill-opacity="0.450000"/>
		<path id="矩形 10" d="M354 703.499C354 703.499 447 597.499 547 576.499C647 555.499 830 623.5 830 623.5C830 623.5 934.604 676.14 1018 663.5C1129.93 646.535 1285 648.499 1285 648.499L1285 772.999L354 772.999L354 703.499Z" fill-rule="evenodd" fill="#1200FF"/>
		<path id="矩形 10" d="M354 636.5C354 636.5 463 532.813 563 501.5C663 470.187 730 549.5 820 549.5C910 549.5 977 512.5 1050 512.5C1123 512.5 1285 549.5 1285 549.5L1285 772.525L354 772.525L354 636.5Z" fill-rule="evenodd" fill="#E5E1FD" fill-opacity="0.800000"/>
		<g filter="url(#filter_2_65_dd)">
			<rect id="矩形 6" x="340.000000" y="270.000000" rx="5.000000" width="960.000000" height="116.000000" fill="#FFFFFF"/>
		</g>
		<rect id="矩形 5" x="365.000000" y="295.000000" rx="5.000000" width="65.000000" height="65.000000" fill="#A29BFE"/>
		<rect id="矩形 7" x="455.000000" y="295.000000" rx="3.000000" width="260.000000" height="25.000000" fill="#A29BFE"/>
		<rect id="矩形 7" x="455.000000" y="335.000000" rx="5.000000" width="820.000000" height="25.000000" fill="#E5E1FD"/>
		<g filter="url(#filter_2_20_dd)">
			<rect id="矩形 6" x="340.000000" y="80.000000" rx="5.000000" width="290.000000" height="160.000000" fill="#FFFFFF"/>
		</g>
		<circle id="椭圆 1" cx="425.000000" cy="160.000000" r="60.000000" fill="#E5E1FD"/>
		<path id="椭圆 1" d="M425 220C410.013 220 396.31 214.505 385.794 205.421C374.45 195.627 367.667 182.514 365.643 168.765C363.454 153.939 366.888 139.58 374.339 127.85C382.371 115.197 394.353 106.571 407.658 102.56C422.005 98.2292 436.712 99.5286 449.404 105.186C463.095 111.283 473.379 121.876 479.29 134.453L425 160L425 220Z" fill-rule="evenodd" fill="#A29BFE"/>
		<circle id="椭圆 1" cx="425.500000" cy="159.500000" r="47.500000" fill="#FFFFFF"/>
		<path id="矩形 7" d="M512 106L566 106C567.657 106 569 107.343 569 109L569 128C569 129.657 567.657 131 566 131L512 131C510.343 131 509 129.657 509 128L509 109C509 107.343 510.343 106 512 106Z" fill-rule="evenodd" fill="#A29BFE"/>
		<rect id="矩形 7" x="509.000000" y="146.000000" rx="3.000000" width="95.000000" height="25.000000" fill="#E5E1FD"/>
		<rect id="矩形 7" x="509.000000" y="186.000000" rx="3.000000" width="95.000000" height="25.000000" fill="#E5E1FD"/>
		<path id="68%" d="M422.69 164.345Q423.951 165.215 426.236 165.215Q428.504 165.215 429.752 164.345Q430.201 164.032 430.489 163.608Q431.004 162.851 431.004 161.744Q431.004 161.005 430.824 160.482Q430.644 159.959 430.345 159.59Q430.109 159.294 429.813 159.08Q429.74 159.027 429.664 158.979Q429.277 158.738 428.864 158.575L428.864 158.5Q429.26 158.32 429.594 158.079Q429.761 157.958 429.905 157.814Q430.049 157.67 430.169 157.503Q430.411 157.169 430.539 156.721Q430.666 156.268 430.666 155.675Q430.666 154.528 430.123 153.771Q429.865 153.411 429.484 153.139Q428.306 152.291 426.236 152.291Q424.114 152.291 422.94 153.139Q422.576 153.402 422.325 153.748Q421.772 154.511 421.772 155.675Q421.772 156.308 421.886 156.756Q422.004 157.204 422.22 157.529Q422.44 157.854 422.725 158.087Q423.015 158.32 423.376 158.5L423.376 158.575Q423.015 158.738 422.664 158.971Q422.312 159.204 422.04 159.573Q421.772 159.942 421.6 160.465Q421.429 160.988 421.429 161.726Q421.429 162.854 421.956 163.618Q422.244 164.036 422.69 164.345ZM413.59 164.947Q414.465 165.18 415.471 165.18Q417.937 165.18 419.07 164.064Q419.222 163.915 419.353 163.75Q420.204 162.679 420.204 160.931Q420.204 159.059 419.277 158.026Q419.228 157.971 419.176 157.919Q418.25 156.989 416.39 156.989Q415.884 156.989 415.3 157.081Q415.185 157.098 415.072 157.126Q414.612 157.237 414.192 157.512L414.122 157.512Q414.24 156.862 414.603 156.408Q414.903 156.034 415.37 155.793Q416.407 155.262 418.372 155.227L418.372 152.326Q416.372 152.326 414.913 152.858Q413.454 153.39 412.518 154.4Q411.582 155.407 411.134 156.892Q410.686 158.377 410.686 160.267Q410.686 161.687 411.055 162.631Q411.424 163.576 412.07 164.143Q412.227 164.281 412.398 164.4Q412.929 164.768 413.59 164.947ZM434.255 159.032Q434.752 159.186 435.38 159.186Q436.008 159.186 436.523 159.032Q436.785 158.954 437.008 158.812Q437.221 158.676 437.397 158.483Q437.757 158.087 437.946 157.433Q438.135 156.773 438.135 155.75Q438.135 154.739 437.946 154.084Q437.757 153.425 437.397 153.029Q437.221 152.836 437.008 152.7Q436.785 152.559 436.523 152.48Q436.008 152.326 435.38 152.326Q434.752 152.326 434.255 152.48Q434.058 152.541 433.883 152.64Q433.616 152.79 433.398 153.029Q433.038 153.425 432.849 154.084Q432.66 154.739 432.66 155.75Q432.66 156.773 432.849 157.433Q433.038 158.087 433.398 158.483Q433.616 158.722 433.883 158.873Q434.058 158.971 434.255 159.032ZM443.769 152.506L441.66 152.506L434.677 165L436.764 165L443.769 152.506ZM435.723 157.477Q435.578 157.547 435.38 157.547Q435.182 157.547 435.046 157.477Q434.91 157.402 434.831 157.204Q434.752 157.006 434.712 156.659Q434.677 156.308 434.677 155.75Q434.677 155.191 434.712 154.84Q434.752 154.488 434.831 154.291Q434.91 154.093 435.046 154.014Q435.182 153.93 435.38 153.93Q435.578 153.93 435.723 154.014Q435.724 154.014 435.725 154.015Q435.869 154.095 435.947 154.291Q436.026 154.488 436.061 154.84Q436.101 155.191 436.101 155.75Q436.101 156.308 436.061 156.659Q436.026 157.006 435.947 157.204Q435.869 157.398 435.728 157.474Q435.726 157.475 435.723 157.477ZM427.353 156.98Q426.992 157.332 426.236 157.332Q425.481 157.332 425.103 156.98Q424.994 156.879 424.917 156.758Q424.725 156.458 424.725 156.035Q424.725 155.532 424.975 155.258Q425.046 155.18 425.138 155.121Q425.551 154.849 426.236 154.849Q426.922 154.849 427.317 155.139Q427.413 155.208 427.486 155.296Q427.713 155.572 427.713 156.035Q427.713 156.487 427.504 156.799Q427.439 156.896 427.353 156.98ZM441.866 165.026Q442.363 165.18 442.996 165.18Q443.624 165.18 444.134 165.026Q444.396 164.948 444.619 164.806Q444.832 164.671 445.008 164.477Q445.369 164.082 445.558 163.427Q445.747 162.768 445.747 161.744Q445.747 160.733 445.558 160.078Q445.369 159.419 445.008 159.023Q444.832 158.83 444.619 158.694Q444.396 158.553 444.134 158.474Q443.624 158.32 442.996 158.32Q442.363 158.32 441.866 158.474Q441.686 158.53 441.524 158.619Q441.242 158.773 441.014 159.023Q440.653 159.419 440.464 160.078Q440.276 160.733 440.276 161.744Q440.276 162.768 440.464 163.427Q440.653 164.082 441.014 164.477Q441.242 164.728 441.524 164.882Q441.686 164.97 441.866 165.026ZM416.56 162.213Q416.11 162.587 415.348 162.587Q414.688 162.587 414.335 162.258Q414.272 162.199 414.219 162.13Q414.179 162.078 414.145 162.023Q413.872 161.592 413.872 160.988Q413.872 160.663 413.942 160.377Q414.007 160.109 414.166 159.919Q414.179 159.904 414.192 159.889Q414.373 159.691 414.68 159.573Q414.988 159.454 415.454 159.454Q416.31 159.454 416.714 159.881Q417.075 160.264 417.075 160.988Q417.075 161.576 416.796 161.962Q416.716 162.072 416.614 162.166Q416.588 162.19 416.56 162.213ZM427.476 162.275Q427.045 162.552 426.236 162.552Q425.406 162.552 424.975 162.275Q424.863 162.202 424.78 162.104Q424.544 161.826 424.544 161.348Q424.544 160.816 424.799 160.471Q424.889 160.348 425.01 160.25Q425.028 160.235 425.046 160.221Q425.509 159.872 426.236 159.872Q426.865 159.872 427.306 160.159Q427.371 160.201 427.432 160.25Q427.57 160.358 427.668 160.496Q427.911 160.835 427.911 161.348Q427.911 161.82 427.678 162.098Q427.593 162.2 427.476 162.275ZM443.334 163.471Q443.193 163.541 442.996 163.541Q442.798 163.541 442.662 163.471Q442.526 163.396 442.442 163.198Q442.363 163 442.328 162.653Q442.293 162.302 442.293 161.744Q442.293 161.186 442.328 160.834Q442.363 160.482 442.442 160.285Q442.526 160.087 442.662 160.008Q442.798 159.924 442.996 159.924Q443.193 159.924 443.334 160.008Q443.479 160.087 443.567 160.285Q443.659 160.482 443.694 160.834Q443.734 161.186 443.734 161.744Q443.734 162.302 443.694 162.653Q443.659 163 443.567 163.198Q443.479 163.396 443.334 163.471Z" fill="#A29BFEFF"/>
		<g filter="url(#filter_2_38_dd)">
			<rect id="矩形 6" x="675.000000" y="80.000000" rx="5.000000" width="290.000000" height="160.000000" fill="#FFFFFF"/>
		</g>
		<circle id="椭圆 1" cx="760.000000" cy="160.000000" r="60.000000" fill="#E5E1FD"/>
		<path id="椭圆 1" d="M760 220C745.013 220 731.31 214.505 720.794 205.421C709.45 195.627 702.667 182.514 700.643 168.765C698.454 153.939 701.888 139.58 709.339 127.85C717.371 115.197 729.353 106.571 742.658 102.56C757.005 98.2292 771.712 99.5286 784.404 105.186C798.095 111.283 808.379 121.876 814.29 134.453L760 160L760 220Z" fill-rule="evenodd" fill="#A29BFE"/>
		<circle id="椭圆 1" cx="760.500000" cy="159.500000" r="47.500000" fill="#FFFFFF"/>
		<rect id="矩形 7" x="844.000000" y="106.000000" rx="3.000000" width="60.000000" height="25.000000" fill="#A29BFE"/>
		<rect id="矩形 7" x="844.000000" y="146.000000" rx="3.000000" width="95.000000" height="25.000000" fill="#E5E1FD"/>
		<rect id="矩形 7" x="844.000000" y="186.000000" rx="3.000000" width="95.000000" height="25.000000" fill="#E5E1FD"/>
		<path id="68%" d="M757.69 164.345Q758.951 165.215 761.236 165.215Q763.504 165.215 764.752 164.345Q765.201 164.032 765.489 163.608Q766.004 162.851 766.004 161.744Q766.004 161.005 765.824 160.482Q765.644 159.959 765.345 159.59Q765.109 159.294 764.813 159.08Q764.74 159.027 764.664 158.979Q764.277 158.738 763.864 158.575L763.864 158.5Q764.26 158.32 764.594 158.079Q764.761 157.958 764.905 157.814Q765.049 157.67 765.169 157.503Q765.411 157.169 765.539 156.721Q765.666 156.268 765.666 155.675Q765.666 154.528 765.123 153.771Q764.865 153.411 764.484 153.139Q763.306 152.291 761.236 152.291Q759.114 152.291 757.94 153.139Q757.576 153.402 757.325 153.748Q756.772 154.511 756.772 155.675Q756.772 156.308 756.886 156.756Q757.004 157.204 757.22 157.529Q757.44 157.854 757.725 158.087Q758.015 158.32 758.376 158.5L758.376 158.575Q758.015 158.738 757.664 158.971Q757.312 159.204 757.04 159.573Q756.772 159.942 756.6 160.465Q756.429 160.988 756.429 161.726Q756.429 162.854 756.956 163.618Q757.244 164.036 757.69 164.345ZM748.59 164.947Q749.465 165.18 750.471 165.18Q752.937 165.18 754.07 164.064Q754.222 163.915 754.353 163.75Q755.204 162.679 755.204 160.931Q755.204 159.059 754.277 158.026Q754.228 157.971 754.176 157.919Q753.25 156.989 751.39 156.989Q750.884 156.989 750.3 157.081Q750.185 157.098 750.072 157.126Q749.612 157.237 749.192 157.512L749.122 157.512Q749.24 156.862 749.603 156.408Q749.903 156.034 750.37 155.793Q751.407 155.262 753.372 155.227L753.372 152.326Q751.372 152.326 749.913 152.858Q748.454 153.39 747.518 154.4Q746.582 155.407 746.134 156.892Q745.686 158.377 745.686 160.267Q745.686 161.687 746.055 162.631Q746.424 163.576 747.07 164.143Q747.227 164.281 747.398 164.4Q747.929 164.768 748.59 164.947ZM769.255 159.032Q769.752 159.186 770.38 159.186Q771.008 159.186 771.523 159.032Q771.785 158.954 772.008 158.812Q772.221 158.676 772.397 158.483Q772.757 158.087 772.946 157.433Q773.135 156.773 773.135 155.75Q773.135 154.739 772.946 154.084Q772.757 153.425 772.397 153.029Q772.221 152.836 772.008 152.7Q771.785 152.559 771.523 152.48Q771.008 152.326 770.38 152.326Q769.752 152.326 769.255 152.48Q769.058 152.541 768.883 152.64Q768.616 152.79 768.398 153.029Q768.038 153.425 767.849 154.084Q767.66 154.739 767.66 155.75Q767.66 156.773 767.849 157.433Q768.038 158.087 768.398 158.483Q768.616 158.722 768.883 158.873Q769.058 158.971 769.255 159.032ZM778.769 152.506L776.66 152.506L769.677 165L771.764 165L778.769 152.506ZM770.723 157.477Q770.578 157.547 770.38 157.547Q770.182 157.547 770.046 157.477Q769.91 157.402 769.831 157.204Q769.752 157.006 769.712 156.659Q769.677 156.308 769.677 155.75Q769.677 155.191 769.712 154.84Q769.752 154.488 769.831 154.291Q769.91 154.093 770.046 154.014Q770.182 153.93 770.38 153.93Q770.578 153.93 770.723 154.014Q770.724 154.014 770.726 154.015Q770.869 154.095 770.947 154.291Q771.026 154.488 771.061 154.84Q771.101 155.191 771.101 155.75Q771.101 156.308 771.061 156.659Q771.026 157.006 770.947 157.204Q770.869 157.398 770.728 157.474Q770.726 157.475 770.723 157.477ZM762.353 156.98Q761.992 157.332 761.236 157.332Q760.481 157.332 760.103 156.98Q759.994 156.879 759.917 156.758Q759.725 156.458 759.725 156.035Q759.725 155.532 759.975 155.258Q760.046 155.18 760.138 155.121Q760.551 154.849 761.236 154.849Q761.922 154.849 762.317 155.139Q762.413 155.208 762.486 155.296Q762.713 155.572 762.713 156.035Q762.713 156.487 762.504 156.799Q762.438 156.896 762.353 156.98ZM776.866 165.026Q777.363 165.18 777.996 165.18Q778.624 165.18 779.134 165.026Q779.396 164.948 779.619 164.806Q779.832 164.671 780.008 164.477Q780.369 164.082 780.558 163.427Q780.747 162.768 780.747 161.744Q780.747 160.733 780.558 160.078Q780.369 159.419 780.008 159.023Q779.832 158.83 779.619 158.694Q779.396 158.553 779.134 158.474Q778.624 158.32 777.996 158.32Q777.363 158.32 776.866 158.474Q776.686 158.53 776.524 158.619Q776.242 158.773 776.014 159.023Q775.653 159.419 775.464 160.078Q775.276 160.733 775.276 161.744Q775.276 162.768 775.464 163.427Q775.653 164.082 776.014 164.477Q776.242 164.728 776.524 164.882Q776.686 164.97 776.866 165.026ZM751.56 162.213Q751.11 162.587 750.348 162.587Q749.688 162.587 749.335 162.258Q749.272 162.199 749.219 162.13Q749.179 162.078 749.144 162.023Q748.872 161.592 748.872 160.988Q748.872 160.663 748.942 160.377Q749.007 160.109 749.166 159.919Q749.179 159.904 749.192 159.889Q749.373 159.691 749.68 159.573Q749.988 159.454 750.454 159.454Q751.31 159.454 751.714 159.881Q752.075 160.264 752.075 160.988Q752.075 161.576 751.796 161.962Q751.716 162.072 751.614 162.166Q751.588 162.19 751.56 162.213ZM762.476 162.275Q762.045 162.552 761.236 162.552Q760.406 162.552 759.975 162.275Q759.863 162.202 759.78 162.104Q759.544 161.826 759.544 161.348Q759.544 160.816 759.799 160.471Q759.889 160.348 760.01 160.25Q760.028 160.235 760.046 160.221Q760.509 159.872 761.236 159.872Q761.865 159.872 762.306 160.159Q762.371 160.201 762.432 160.25Q762.57 160.358 762.668 160.496Q762.911 160.835 762.911 161.348Q762.911 161.82 762.678 162.098Q762.593 162.2 762.476 162.275ZM778.334 163.471Q778.193 163.541 777.996 163.541Q777.798 163.541 777.662 163.471Q777.526 163.396 777.442 163.198Q777.363 163 777.328 162.653Q777.293 162.302 777.293 161.744Q777.293 161.186 777.328 160.834Q777.363 160.482 777.442 160.285Q777.526 160.087 777.662 160.008Q777.798 159.924 777.996 159.924Q778.193 159.924 778.334 160.008Q778.479 160.087 778.567 160.285Q778.659 160.482 778.694 160.834Q778.734 161.186 778.734 161.744Q778.734 162.302 778.694 162.653Q778.659 163 778.567 163.198Q778.479 163.396 778.334 163.471Z" fill="#A29BFEFF"/>
		<g filter="url(#filter_2_47_dd)">
			<rect id="矩形 6" x="1010.000000" y="80.000000" rx="5.000000" width="290.000000" height="160.000000" fill="#FFFFFF"/>
		</g>
		<circle id="椭圆 1" cx="1095.000000" cy="160.000000" r="60.000000" fill="#E5E1FD"/>
		<path id="椭圆 1" d="M1095 220C1080.01 220 1066.31 214.505 1055.79 205.421C1044.45 195.627 1037.67 182.514 1035.64 168.765C1033.45 153.939 1036.89 139.58 1044.34 127.85C1052.37 115.197 1064.35 106.571 1077.66 102.56C1092.01 98.2292 1106.71 99.5286 1119.4 105.186C1133.1 111.283 1143.38 121.876 1149.29 134.453L1095 160L1095 220Z" fill-rule="evenodd" fill="#A29BFE"/>
		<circle id="椭圆 1" cx="1095.500000" cy="159.500000" r="47.500000" fill="#FFFFFF"/>
		<rect id="矩形 7" x="1179.000000" y="106.000000" rx="3.000000" width="60.000000" height="25.000000" fill="#A29BFE"/>
		<rect id="矩形 7" x="1179.000000" y="146.000000" rx="3.000000" width="95.000000" height="25.000000" fill="#E5E1FD"/>
		<rect id="矩形 7" x="1179.000000" y="186.000000" rx="3.000000" width="95.000000" height="25.000000" fill="#E5E1FD"/>
		<path id="68%" d="M1092.69 164.345Q1093.95 165.215 1096.24 165.215Q1098.5 165.215 1099.75 164.345Q1100.2 164.032 1100.49 163.608Q1101 162.851 1101 161.744Q1101 161.005 1100.82 160.482Q1100.64 159.959 1100.35 159.59Q1100.11 159.294 1099.81 159.08Q1099.74 159.027 1099.66 158.979Q1099.28 158.738 1098.86 158.575L1098.86 158.5Q1099.26 158.32 1099.59 158.079Q1099.76 157.958 1099.9 157.814Q1100.05 157.67 1100.17 157.503Q1100.41 157.169 1100.54 156.721Q1100.67 156.268 1100.67 155.675Q1100.67 154.528 1100.12 153.771Q1099.86 153.411 1099.48 153.139Q1098.31 152.291 1096.24 152.291Q1094.11 152.291 1092.94 153.139Q1092.58 153.402 1092.32 153.748Q1091.77 154.511 1091.77 155.675Q1091.77 156.308 1091.89 156.756Q1092 157.204 1092.22 157.529Q1092.44 157.854 1092.73 158.087Q1093.02 158.32 1093.38 158.5L1093.38 158.575Q1093.02 158.738 1092.66 158.971Q1092.31 159.204 1092.04 159.573Q1091.77 159.942 1091.6 160.465Q1091.43 160.988 1091.43 161.726Q1091.43 162.854 1091.96 163.618Q1092.24 164.036 1092.69 164.345ZM1083.59 164.947Q1084.46 165.18 1085.47 165.18Q1087.94 165.18 1089.07 164.064Q1089.22 163.915 1089.35 163.75Q1090.2 162.679 1090.2 160.931Q1090.2 159.059 1089.28 158.026Q1089.23 157.971 1089.18 157.919Q1088.25 156.989 1086.39 156.989Q1085.88 156.989 1085.3 157.081Q1085.18 157.098 1085.07 157.126Q1084.61 157.237 1084.19 157.512L1084.12 157.512Q1084.24 156.862 1084.6 156.408Q1084.9 156.034 1085.37 155.793Q1086.41 155.262 1088.37 155.227L1088.37 152.326Q1086.37 152.326 1084.91 152.858Q1083.45 153.39 1082.52 154.4Q1081.58 155.407 1081.13 156.892Q1080.69 158.377 1080.69 160.267Q1080.69 161.687 1081.05 162.631Q1081.42 163.576 1082.07 164.143Q1082.23 164.281 1082.4 164.4Q1082.93 164.768 1083.59 164.947ZM1104.26 159.032Q1104.75 159.186 1105.38 159.186Q1106.01 159.186 1106.52 159.032Q1106.79 158.954 1107.01 158.812Q1107.22 158.676 1107.4 158.483Q1107.76 158.087 1107.95 157.433Q1108.14 156.773 1108.14 155.75Q1108.14 154.739 1107.95 154.084Q1107.76 153.425 1107.4 153.029Q1107.22 152.836 1107.01 152.7Q1106.79 152.559 1106.52 152.48Q1106.01 152.326 1105.38 152.326Q1104.75 152.326 1104.26 152.48Q1104.06 152.541 1103.88 152.64Q1103.62 152.79 1103.4 153.029Q1103.04 153.425 1102.85 154.084Q1102.66 154.739 1102.66 155.75Q1102.66 156.773 1102.85 157.433Q1103.04 158.087 1103.4 158.483Q1103.62 158.722 1103.88 158.873Q1104.06 158.971 1104.26 159.032ZM1113.77 152.506L1111.66 152.506L1104.68 165L1106.76 165L1113.77 152.506ZM1105.72 157.477Q1105.58 157.547 1105.38 157.547Q1105.18 157.547 1105.05 157.477Q1104.91 157.402 1104.83 157.204Q1104.75 157.006 1104.71 156.659Q1104.68 156.308 1104.68 155.75Q1104.68 155.191 1104.71 154.84Q1104.75 154.488 1104.83 154.291Q1104.91 154.093 1105.05 154.014Q1105.18 153.93 1105.38 153.93Q1105.58 153.93 1105.72 154.014Q1105.72 154.014 1105.73 154.015Q1105.87 154.095 1105.95 154.291Q1106.03 154.488 1106.06 154.84Q1106.1 155.191 1106.1 155.75Q1106.1 156.308 1106.06 156.659Q1106.03 157.006 1105.95 157.204Q1105.87 157.398 1105.73 157.474Q1105.73 157.475 1105.72 157.477ZM1097.35 156.98Q1096.99 157.332 1096.24 157.332Q1095.48 157.332 1095.1 156.98Q1094.99 156.879 1094.92 156.758Q1094.72 156.458 1094.72 156.035Q1094.72 155.532 1094.98 155.258Q1095.05 155.18 1095.14 155.121Q1095.55 154.849 1096.24 154.849Q1096.92 154.849 1097.32 155.139Q1097.41 155.208 1097.49 155.296Q1097.71 155.572 1097.71 156.035Q1097.71 156.487 1097.5 156.799Q1097.44 156.896 1097.35 156.98ZM1111.87 165.026Q1112.36 165.18 1113 165.18Q1113.62 165.18 1114.13 165.026Q1114.4 164.948 1114.62 164.806Q1114.83 164.671 1115.01 164.477Q1115.37 164.082 1115.56 163.427Q1115.75 162.768 1115.75 161.744Q1115.75 160.733 1115.56 160.078Q1115.37 159.419 1115.01 159.023Q1114.83 158.83 1114.62 158.694Q1114.4 158.553 1114.13 158.474Q1113.62 158.32 1113 158.32Q1112.36 158.32 1111.87 158.474Q1111.69 158.53 1111.52 158.619Q1111.24 158.773 1111.01 159.023Q1110.65 159.419 1110.46 160.078Q1110.28 160.733 1110.28 161.744Q1110.28 162.768 1110.46 163.427Q1110.65 164.082 1111.01 164.477Q1111.24 164.728 1111.52 164.882Q1111.69 164.97 1111.87 165.026ZM1086.56 162.213Q1086.11 162.587 1085.35 162.587Q1084.69 162.587 1084.33 162.258Q1084.27 162.199 1084.22 162.13Q1084.18 162.078 1084.14 162.023Q1083.87 161.592 1083.87 160.988Q1083.87 160.663 1083.94 160.377Q1084.01 160.109 1084.17 159.919Q1084.18 159.904 1084.19 159.889Q1084.37 159.691 1084.68 159.573Q1084.99 159.454 1085.45 159.454Q1086.31 159.454 1086.71 159.881Q1087.08 160.264 1087.08 160.988Q1087.08 161.576 1086.8 161.962Q1086.72 162.072 1086.61 162.166Q1086.59 162.19 1086.56 162.213ZM1097.48 162.275Q1097.04 162.552 1096.24 162.552Q1095.41 162.552 1094.98 162.275Q1094.86 162.202 1094.78 162.104Q1094.54 161.826 1094.54 161.348Q1094.54 160.816 1094.8 160.471Q1094.89 160.348 1095.01 160.25Q1095.03 160.235 1095.05 160.221Q1095.51 159.872 1096.24 159.872Q1096.86 159.872 1097.31 160.159Q1097.37 160.201 1097.43 160.25Q1097.57 160.358 1097.67 160.496Q1097.91 160.835 1097.91 161.348Q1097.91 161.82 1097.68 162.098Q1097.59 162.2 1097.48 162.275ZM1113.33 163.471Q1113.19 163.541 1113 163.541Q1112.8 163.541 1112.66 163.471Q1112.53 163.396 1112.44 163.198Q1112.36 163 1112.33 162.653Q1112.29 162.302 1112.29 161.744Q1112.29 161.186 1112.33 160.834Q1112.36 160.482 1112.44 160.285Q1112.53 160.087 1112.66 160.008Q1112.8 159.924 1113 159.924Q1113.19 159.924 1113.33 160.008Q1113.48 160.087 1113.57 160.285Q1113.66 160.482 1113.69 160.834Q1113.73 161.186 1113.73 161.744Q1113.73 162.302 1113.69 162.653Q1113.66 163 1113.57 163.198Q1113.48 163.396 1113.33 163.471Z" fill="#A29BFEFF"/>
	</g>
	<defs>
		<filter id="filter_2_5_dd" x="21.000000" y="75.000000" width="258.000000" height="40.000000" filterUnits="userSpaceOnUse" color-interpolation-filters="sRGB">
			<feFlood flood-opacity="0" result="BackgroundImageFix"/>
			<feColorMatrix in="SourceAlpha" type="matrix" values="0 0 0 0 0 0 0 0 0 0 0 0 0 0 0 0 0 0 127 0"/>
			<feOffset dx="0" dy="0"/>
			<feGaussianBlur stdDeviation="1.33333"/>
			<feColorMatrix type="matrix" values="0 0 0 0 0.56471 0 0 0 0 0.53333 0 0 0 0 1 0 0 0 0.25 0"/>
			<feBlend mode="normal" in2="BackgroundImageFix" result="effect_dropShadow_1"/>
			<feBlend mode="normal" in="SourceGraphic" in2="effect_dropShadow_1" result="shape"/>
		</filter>
		<filter id="filter_2_6_dd" x="21.000000" y="132.000000" width="258.000000" height="40.000000" filterUnits="userSpaceOnUse" color-interpolation-filters="sRGB">
			<feFlood flood-opacity="0" result="BackgroundImageFix"/>
			<feColorMatrix in="SourceAlpha" type="matrix" values="0 0 0 0 0 0 0 0 0 0 0 0 0 0 0 0 0 0 127 0"/>
			<feOffset dx="0" dy="0"/>
			<feGaussianBlur stdDeviation="1.33333"/>
			<feColorMatrix type="matrix" values="0 0 0 0 0.56471 0 0 0 0 0.53333 0 0 0 0 1 0 0 0 0.25 0"/>
			<feBlend mode="normal" in2="BackgroundImageFix" result="effect_dropShadow_1"/>
			<feBlend mode="normal" in="SourceGraphic" in2="effect_dropShadow_1" result="shape"/>
		</filter>
		<filter id="filter_2_7_dd" x="21.000000" y="189.000000" width="258.000000" height="41.000000" filterUnits="userSpaceOnUse" color-interpolation-filters="sRGB">
			<feFlood flood-opacity="0" result="BackgroundImageFix"/>
			<feColorMatrix in="SourceAlpha" type="matrix" values="0 0 0 0 0 0 0 0 0 0 0 0 0 0 0 0 0 0 127 0"/>
			<feOffset dx="0" dy="0"/>
			<feGaussianBlur stdDeviation="1.33333"/>
			<feColorMatrix type="matrix" values="0 0 0 0 0.56471 0 0 0 0 0.53333 0 0 0 0 1 0 0 0 0.25 0"/>
			<feBlend mode="normal" in2="BackgroundImageFix" result="effect_dropShadow_1"/>
			<feBlend mode="normal" in="SourceGraphic" in2="effect_dropShadow_1" result="shape"/>
		</filter>
		<filter id="filter_2_8_dd" x="21.000000" y="305.000000" width="258.000000" height="41.000000" filterUnits="userSpaceOnUse" color-interpolation-filters="sRGB">
			<feFlood flood-opacity="0" result="BackgroundImageFix"/>
			<feColorMatrix in="SourceAlpha" type="matrix" values="0 0 0 0 0 0 0 0 0 0 0 0 0 0 0 0 0 0 127 0"/>
			<feOffset dx="0" dy="0"/>
			<feGaussianBlur stdDeviation="1.33333"/>
			<feColorMatrix type="matrix" values="0 0 0 0 0.56471 0 0 0 0 0.53333 0 0 0 0 1 0 0 0 0.25 0"/>
			<feBlend mode="normal" in2="BackgroundImageFix" result="effect_dropShadow_1"/>
			<feBlend mode="normal" in="SourceGraphic" in2="effect_dropShadow_1" result="shape"/>
		</filter>
		<filter id="filter_2_9_dd" x="21.000000" y="247.000000" width="258.000000" height="41.000000" filterUnits="userSpaceOnUse" color-interpolation-filters="sRGB">
			<feFlood flood-opacity="0" result="BackgroundImageFix"/>
			<feColorMatrix in="SourceAlpha" type="matrix" values="0 0 0 0 0 0 0 0 0 0 0 0 0 0 0 0 0 0 127 0"/>
			<feOffset dx="0" dy="0"/>
			<feGaussianBlur stdDeviation="1.33333"/>
			<feColorMatrix type="matrix" values="0 0 0 0 0.56471 0 0 0 0 0.53333 0 0 0 0 1 0 0 0 0.25 0"/>
			<feBlend mode="normal" in2="BackgroundImageFix" result="effect_dropShadow_1"/>
			<feBlend mode="normal" in="SourceGraphic" in2="effect_dropShadow_1" result="shape"/>
		</filter>
		<filter id="filter_2_74_dd" x="330.000000" y="405.000000" width="980.000000" height="395.000000" filterUnits="userSpaceOnUse" color-interpolation-filters="sRGB">
			<feFlood flood-opacity="0" result="BackgroundImageFix"/>
			<feColorMatrix in="SourceAlpha" type="matrix" values="0 0 0 0 0 0 0 0 0 0 0 0 0 0 0 0 0 0 127 0"/>
			<feOffset dx="0" dy="0"/>
			<feGaussianBlur stdDeviation="3.33333"/>
			<feColorMatrix type="matrix" values="0 0 0 0 0 0 0 0 0 0 0 0 0 0 0 0 0 0 0.25 0"/>
			<feBlend mode="normal" in2="BackgroundImageFix" result="effect_dropShadow_1"/>
			<feBlend mode="normal" in="SourceGraphic" in2="effect_dropShadow_1" result="shape"/>
		</filter>
		<filter id="filter_2_65_dd" x="330.000000" y="260.000000" width="980.000000" height="136.000000" filterUnits="userSpaceOnUse" color-interpolation-filters="sRGB">
			<feFlood flood-opacity="0" result="BackgroundImageFix"/>
			<feColorMatrix in="SourceAlpha" type="matrix" values="0 0 0 0 0 0 0 0 0 0 0 0 0 0 0 0 0 0 127 0"/>
			<feOffset dx="0" dy="0"/>
			<feGaussianBlur stdDeviation="3.33333"/>
			<feColorMatrix type="matrix" values="0 0 0 0 0 0 0 0 0 0 0 0 0 0 0 0 0 0 0.25 0"/>
			<feBlend mode="normal" in2="BackgroundImageFix" result="effect_dropShadow_1"/>
			<feBlend mode="normal" in="SourceGraphic" in2="effect_dropShadow_1" result="shape"/>
		</filter>
		<filter id="filter_2_20_dd" x="330.000000" y="70.000000" width="310.000000" height="180.000000" filterUnits="userSpaceOnUse" color-interpolation-filters="sRGB">
			<feFlood flood-opacity="0" result="BackgroundImageFix"/>
			<feColorMatrix in="SourceAlpha" type="matrix" values="0 0 0 0 0 0 0 0 0 0 0 0 0 0 0 0 0 0 127 0"/>
			<feOffset dx="0" dy="0"/>
			<feGaussianBlur stdDeviation="3.33333"/>
			<feColorMatrix type="matrix" values="0 0 0 0 0 0 0 0 0 0 0 0 0 0 0 0 0 0 0.25 0"/>
			<feBlend mode="normal" in2="BackgroundImageFix" result="effect_dropShadow_1"/>
			<feBlend mode="normal" in="SourceGraphic" in2="effect_dropShadow_1" result="shape"/>
		</filter>
		<filter id="filter_2_38_dd" x="665.000000" y="70.000000" width="310.000000" height="180.000000" filterUnits="userSpaceOnUse" color-interpolation-filters="sRGB">
			<feFlood flood-opacity="0" result="BackgroundImageFix"/>
			<feColorMatrix in="SourceAlpha" type="matrix" values="0 0 0 0 0 0 0 0 0 0 0 0 0 0 0 0 0 0 127 0"/>
			<feOffset dx="0" dy="0"/>
			<feGaussianBlur stdDeviation="3.33333"/>
			<feColorMatrix type="matrix" values="0 0 0 0 0 0 0 0 0 0 0 0 0 0 0 0 0 0 0.25 0"/>
			<feBlend mode="normal" in2="BackgroundImageFix" result="effect_dropShadow_1"/>
			<feBlend mode="normal" in="SourceGraphic" in2="effect_dropShadow_1" result="shape"/>
		</filter>
		<filter id="filter_2_47_dd" x="1000.000000" y="70.000000" width="310.000000" height="180.000000" filterUnits="userSpaceOnUse" color-interpolation-filters="sRGB">
			<feFlood flood-opacity="0" result="BackgroundImageFix"/>
			<feColorMatrix in="SourceAlpha" type="matrix" values="0 0 0 0 0 0 0 0 0 0 0 0 0 0 0 0 0 0 127 0"/>
			<feOffset dx="0" dy="0"/>
			<feGaussianBlur stdDeviation="3.33333"/>
			<feColorMatrix type="matrix" values="0 0 0 0 0 0 0 0 0 0 0 0 0 0 0 0 0 0 0.25 0"/>
			<feBlend mode="normal" in2="BackgroundImageFix" result="effect_dropShadow_1"/>
			<feBlend mode="normal" in="SourceGraphic" in2="effect_dropShadow_1" result="shape"/>
		</filter>
		<clipPath id="clip2_2">
			<rect id="background-image" rx="10.000000" width="1340.000000" height="820.000000" fill="white"/>
		</clipPath>
	</defs>
</svg>
