<svg width="246.000000" height="52.000000" viewBox="0 0 246 52" fill="none" xmlns="http://www.w3.org/2000/svg" xmlns:xlink="http://www.w3.org/1999/xlink">
	<desc>
			Created with Pixso.
	</desc>
	<g clip-path="url(#clip8_2)">
		<path id="矩形 1" d="M46.5685 38.24C45.71 39.7657 26.8232 50 25.1061 50C23.3892 50 4.50235 39.7143 3.64386 38.24C2.78537 36.7657 2.78537 15.059 3.64386 13.8866C4.50235 12.7143 23.3892 2 25.1061 2C26.8231 2 45.71 12.4875 46.5685 13.8866C47.4269 15.2857 47.4269 36.7143 46.5685 38.24Z" stroke="#A29BFE" stroke-width="2.000000"/>
		<path id="矩形 1" d="M41.5312 34.935C40.8705 36.1111 26.3348 44 25.0134 44C23.692 44 9.15625 36.0714 8.49554 34.935C7.83481 33.7986 7.83484 17.0663 8.49554 16.1626C9.15625 15.2589 23.692 7 25.0134 7C26.3348 7 40.8705 15.0842 41.5312 16.1626C42.192 17.2411 42.192 33.7589 41.5312 34.935Z" stroke="#A29BFE" stroke-width="2.000000"/>
		<path id="矩形 2" d="M25 26.7321L26 25L35.5263 30.5C36.0046 30.7761 36.1685 31.3877 35.8923 31.866C35.6162 32.3443 35.0046 32.5082 34.5263 32.2321L25 26.7321Z" fill-rule="evenodd" fill="#A29BFE"/>
		<path id="矩形 2" d="M26 25L24 25L24 14C24 13.4477 24.4477 13 25 13C25.5523 13 26 13.4477 26 14L26 25Z" fill-rule="evenodd" fill="#A29BFE"/>
		<path id="矩形 2" d="M24 25L25 26.7321L15.4737 32.2321C14.9954 32.5082 14.3839 32.3443 14.1077 31.866C13.8315 31.3877 13.9954 30.7761 14.4737 30.5L24 25Z" fill-rule="evenodd" fill="#A29BFE"/>
		<rect id="矩形 3" x="24.000000" y="24.000000" width="2.000000" height="2.730000" fill="#A29BFE"/>
		<path id="Effortless" d="M177.227 41.563L184.763 41.563L184.763 13.8115L177.227 13.8115L177.227 41.563ZM88.3793 22.1831L84.4169 22.1831L84.4169 24.4316L88.3793 24.4316L88.3793 41.563L95.3373 41.563L95.3373 24.4316L98.4868 24.4316L98.4868 22.1831L95.3373 22.1831L95.3373 16.7485Q95.3373 16.4336 95.4948 16.2761Q95.6523 16.1187 95.9672 16.1187L98.5527 16.1187L98.5527 13.8701L90.269 13.8701Q89.8992 13.8701 89.5792 13.9964Q89.2275 14.1353 88.936 14.4268Q88.6445 14.7182 88.5056 15.07Q88.3793 15.39 88.3793 15.7598L88.3793 22.1831ZM106.269 22.1831L102.307 22.1831L102.307 24.4316L106.269 24.4316L106.269 41.563L113.227 41.563L113.227 24.4316L116.377 24.4316L116.377 22.1831L113.227 22.1831L113.227 16.7485Q113.227 16.4336 113.385 16.2761Q113.542 16.1187 113.857 16.1187L116.443 16.1187L116.443 13.8701L108.159 13.8701Q107.789 13.8701 107.469 13.9964Q107.117 14.1353 106.826 14.4268Q106.534 14.7182 106.396 15.07Q106.269 15.39 106.269 15.7598L106.269 22.1831ZM80.6621 16.1187L80.6621 14.1411L65.2666 14.1411Q64.8968 14.1411 64.5768 14.2674Q64.2251 14.4063 63.9336 14.6978Q63.6572 14.9705 63.5181 15.301Q63.377 15.6362 63.377 16.0308L63.377 41.563L80.6621 41.563L80.6621 39.6074L70.2471 39.6074L70.2471 27.9985L80.479 27.9985L80.479 26.021L70.2471 26.021L70.2471 16.7485Q70.2471 16.4336 70.4045 16.2761Q70.562 16.1187 70.877 16.1187L80.6621 16.1187ZM162.997 25.2666L162.997 41.563L173.47 41.563L173.47 39.4023L170.533 39.4023L170.533 25.2666L173.317 25.2666L173.317 22.9888L170.533 22.9888L170.533 15.0713L162.997 15.0713L162.997 22.9888L159.247 22.9888L159.247 25.2666L162.997 25.2666ZM155.491 27.6396L155.491 22.7471L151.77 22.7471L148.232 24.5488L148.232 21.5532L141.267 21.5532L141.267 41.563L148.232 41.563L148.232 28.8408L150.451 27.6396L155.491 27.6396ZM188.517 22.542L188.517 41.563L206.161 41.563L206.161 39.3364L195.482 39.3364L195.482 34.4512L206.102 34.4512L206.102 24.4316Q206.102 24.0188 205.952 23.671Q205.817 23.3586 205.56 23.0986Q205.289 22.8197 204.958 22.6805Q204.629 22.542 204.242 22.542L188.517 22.542ZM120.197 41.563L137.511 41.563L137.511 24.5488Q137.511 24.1616 137.377 23.8291Q137.241 23.4948 136.969 23.2158Q136.698 22.9368 136.367 22.7977Q136.038 22.6592 135.651 22.6592L120.197 22.6592L120.197 41.563ZM219.548 33.9092L219.548 39.373L209.917 39.373L209.917 41.563L226.777 41.563L226.777 32.8911Q226.777 32.4783 226.627 32.1305Q226.492 31.8181 226.235 31.5581Q225.981 31.2936 225.671 31.1548Q225.328 31.0015 224.917 31.0015L217.182 31.0015L217.182 24.9736L226.777 24.9736L226.777 22.7764L209.917 22.7764L209.917 33.2793L218.918 33.2793Q219.233 33.2793 219.391 33.4368Q219.548 33.5942 219.548 33.9092ZM240.168 33.9092L240.168 39.373L230.537 39.373L230.537 41.563L247.397 41.563L247.397 32.8911Q247.397 32.4783 247.247 32.1305Q247.112 31.8181 246.855 31.5581Q246.601 31.2936 246.291 31.1548Q245.948 31.0015 245.537 31.0015L237.802 31.0015L237.802 24.9736L247.397 24.9736L247.397 22.7764L230.537 22.7764L230.537 33.2793L239.538 33.2793Q239.853 33.2793 240.011 33.4368Q240.168 33.5942 240.168 33.9092ZM199.137 32.2319L195.482 32.2319L195.482 24.7905L198.507 24.7905Q198.822 24.7905 198.979 24.948Q199.137 25.1055 199.137 25.4204L199.137 32.2319ZM127.433 39.373L127.433 24.8784L129.923 24.8784Q130.238 24.8784 130.396 25.0359Q130.553 25.1934 130.553 25.5083L130.553 39.373L127.433 39.373Z" fill="#A29BFEFF"/>
	</g>
	<defs>
		<clipPath id="clip8_2">
			<rect id="logo_text" width="246.000000" height="52.000000" fill="white"/>
		</clipPath>
	</defs>
</svg>
