<svg width="246.000000" height="52.000000" viewBox="0 0 246 52" fill="none" xmlns="http://www.w3.org/2000/svg" xmlns:xlink="http://www.w3.org/1999/xlink">
	<desc>
			Created with Pixso.
	</desc>
	<g clip-path="url(#clip8_2)">
		<path id="矩形 1" d="M46.5685 38.24C45.71 39.7657 26.8232 50 25.1061 50C23.3892 50 4.50235 39.7143 3.64386 38.24C2.78537 36.7657 2.78537 15.059 3.64386 13.8866C4.50235 12.7143 23.3892 2 25.1061 2C26.8231 2 45.71 12.4875 46.5685 13.8866C47.4269 15.2857 47.4269 36.7143 46.5685 38.24Z" stroke="#A29BFE" stroke-width="2.000000"/>
		<path id="矩形 1" d="M41.5312 34.935C40.8705 36.1111 26.3348 44 25.0134 44C23.692 44 9.15625 36.0714 8.49554 34.935C7.83481 33.7986 7.83484 17.0663 8.49554 16.1626C9.15625 15.2589 23.692 7 25.0134 7C26.3348 7 40.8705 15.0842 41.5312 16.1626C42.192 17.2411 42.192 33.7589 41.5312 34.935Z" stroke="#A29BFE" stroke-width="2.000000"/>
		<path id="矩形 2" d="M25 26.7321L26 25L35.5263 30.5C36.0046 30.7761 36.1685 31.3877 35.8923 31.866C35.6162 32.3443 35.0046 32.5082 34.5263 32.2321L25 26.7321Z" fill-rule="evenodd" fill="#A29BFE"/>
		<path id="矩形 2" d="M26 25L24 25L24 14C24 13.4477 24.4477 13 25 13C25.5523 13 26 13.4477 26 14L26 25Z" fill-rule="evenodd" fill="#A29BFE"/>
		<path id="矩形 2" d="M24 25L25 26.7321L15.4737 32.2321C14.9954 32.5082 14.3839 32.3443 14.1077 31.866C13.8315 31.3877 13.9954 30.7761 14.4737 30.5L24 25Z" fill-rule="evenodd" fill="#A29BFE"/>
		<rect id="矩形 3" x="24.000000" y="24.000000" width="2.000000" height="2.730000" fill="#A29BFE"/>
		<path id="Swift" d="M66.2198 43.1925Q66.5239 43.375 66.9375 43.375L78.9375 43.1875L79.125 43.1875Q81.375 43.1875 81.75 42.4375Q82.6875 40.375 83.0625 29.5Q83.3272 26.5882 82.0037 25.2647Q81.4522 24.7132 80.625 24.4375Q79.5 23.6875 78.75 23.5Q77.8125 23.3125 75 23.3125L72.1875 23.5Q72 22.75 72.0938 22.2812Q72.1875 21.8125 72.1875 21.4375L72.1875 19.1875L81 18.625Q81.5625 18.625 81.8438 18.3438Q82.125 18.0625 82.125 17.5Q82.5 14.5 81.75 13.1875Q81.3199 12.614 80.7801 12.479Q80.614 12.4375 80.4375 12.4375L80.25 12.4375L80.25 12.25Q79.8199 11.6765 79.2801 11.5415Q79.114 11.5 78.9375 11.5L69.5625 11.875Q69 11.6875 67.5 11.6875Q66.375 11.6875 65.8125 11.875Q65.25 12.0625 64.875 12.8125L64.875 13.1875L64.3125 18.25Q63.9375 22.375 63.9375 25.1875Q63.9375 26.875 64.125 27.625L64.6875 29.5Q64.6667 29.5417 64.6667 29.5833Q64.6667 29.9167 66 30.25L66.1875 30.4375Q66.1471 30.4779 66.1415 30.5226Q66.1212 30.6856 66.5625 30.9062Q67.125 31.1875 67.875 31.1875L69.1875 31Q71.25 31 72.9375 30.8125L75 30.8125L74.8125 34.1875L74.8125 35.5L74.625 36.0625L66 36.0625Q65.4375 36.0625 64.6875 36.4375Q64.3125 36.8125 63.9375 37.75L63.75 39.25Q63.75 40 64.125 41.5Q64.3346 42.0239 64.7198 42.255Q65.0239 42.4375 65.4375 42.4375L65.625 42.4375Q65.8346 42.9614 66.2198 43.1925ZM121.062 19Q121.25 19.1875 122.188 19.1875L124.812 19.1875Q125.75 19.1875 125.938 19Q126.5 18.625 126.688 18.25Q127.062 17.125 127.062 15.8125Q127.062 14.5 126.688 13.375Q126.5 13 125.938 12.625L125.188 12.4375Q125 12.0625 124.438 11.6875Q124.062 11.5 123.312 11.5L120.688 11.6875Q119.75 11.6875 119.562 11.875Q119 12.25 118.812 12.625Q118.438 13.75 118.438 15.0625Q118.438 16.1875 118.812 17.3125Q119 17.6875 119.562 18.0625L120.312 18.25Q120.5 18.625 121.062 19ZM135.605 42.1696Q136.075 43.1875 138.75 43.1875Q141.029 43.1875 141.577 42.2137Q141.75 41.9056 141.75 41.5L141.375 36.625L141.375 30.8125Q144.75 30.8125 145.125 30.25Q145.5 29.5 145.5 27.25Q145.5 25.75 144.75 25L143.625 24.625L143.25 24.0625Q142.5 23.6875 141.188 23.6875L141.188 19.1875L141.75 19L142.5 19Q143.062 19.1875 145.5 19.1875Q146.086 19.1875 146.379 18.8945Q146.555 18.7188 146.625 18.4375Q147.188 17.5 147.188 16.1875L147 14.3125Q147 14.1056 146.929 13.9272Q146.741 13.459 146.062 13.1875L145.5 13.1875Q145.168 12.3582 144.69 12.2625Q144.627 12.25 144.562 12.25Q143.438 12.0625 140.625 12.0625Q137.625 12.0625 135.375 12.25Q134.925 12.0701 134.584 12.1922Q133.5 12.5792 133.5 16Q133.312 17.125 133.312 19.75L133.312 23.3125L132.188 23.3125Q131.25 23.3125 130.875 23.5Q130.688 23.625 130.531 23.7812Q129.75 24.5625 129.75 26.125Q129.75 28.1875 130.688 29.125Q130.832 29.3413 131.031 29.4745Q131.351 29.6875 131.812 29.6875L132.188 30.0625Q132.525 30.4 132.93 30.535Q133.2 30.625 133.5 30.625L133.5 36.25L134.062 40.75Q134.062 41.3191 134.345 41.6415Q134.713 42.0625 135.562 42.0625Q135.581 42.1174 135.605 42.1696ZM155.924 43.2454Q156.154 43.2838 156.438 43L158.875 43.5625Q163.188 43.75 166 43.1875Q166.679 42.916 166.866 42.4478Q166.938 42.2694 166.938 42.0625Q167.312 39.0625 166.75 37.9375Q166.32 37.364 165.78 37.229Q165.614 37.1875 165.438 37.1875L165.25 37.1875L165.25 37Q164.82 36.4265 164.28 36.2915Q164.114 36.25 163.938 36.25L161.125 36.25L161.125 35.875L161.312 29.3125L165.062 29.125Q165.625 29.125 165.906 28.8438Q166.188 28.5625 166.188 28Q166.562 25.375 165.812 23.875Q165.382 23.3015 164.843 23.1665Q164.676 23.125 164.5 23.125L164.312 23.125L164.312 22.9375Q163.882 22.364 163.343 22.229Q163.176 22.1875 163 22.1875L161.312 22.1875L161.688 14.875Q161.688 14.4038 161.47 14.0777Q161.082 13.4952 160 13.375Q159.967 13.2747 159.917 13.1833Q159.408 12.25 157.188 12.25Q154.578 12.25 154.105 13.2554Q154 13.478 154 13.75L153.438 22.375L151.375 22.5625Q150.961 22.5625 150.657 22.745Q150.272 22.9761 150.062 23.5L149.875 24.625Q149.688 25 149.688 25.75Q149.688 26.125 150.062 27.625Q150.137 28 150.363 28.225Q150.7 28.5625 151.375 28.5625Q151.744 29.1767 152.273 29.3885Q152.552 29.5 152.875 29.5L153.438 29.5Q153.062 34.9375 153.438 38.3125Q153.438 41.9528 154.399 42.2276Q154.478 42.25 154.562 42.25L154.938 42.0625L155.312 42.25Q155.546 43.1824 155.924 43.2454ZM76.3125 40.9375L76.3125 41.125L65.25 41.3125Q64.875 39.8125 64.875 39.25L65.25 37.1875L75.5625 37.1875L75.9375 35.6875L75.9375 34.1875Q76.125 32.6875 76.125 30.625Q76.125 29.125 75.9375 28.75Q75.75 28.5625 71.25 28.75Q69.5625 28.9375 67.5 28.9375Q66 29.3125 65.4375 28.9375Q65.0625 26.3125 65.0625 25.1875Q65.0625 22.5625 65.4375 18.4375L66 13.1875L66 13Q66.1875 12.8125 67.5 12.8125Q69 12.8125 69.375 13L79.125 12.625Q79.2938 12.9625 79.4119 13.3169Q79.6875 14.1438 79.6875 15.0625L79.5 16.5625L69.75 17.125Q69.5625 18.0625 69.5625 20.5Q69.375 21.8125 69.375 24.8125L75 24.4375Q77.625 24.4375 78.5625 24.625Q79.0783 24.7282 79.4522 25.0158Q80.4375 25.7737 80.4375 27.8125L80.4375 28.5625Q80.25 38.875 79.3125 40.9375Q79.125 41.125 77.625 41.125Q76.6875 41.125 76.3125 40.9375ZM124.438 14.875Q124.438 16.75 124.062 17.125L119.938 17.125Q119.562 16.75 119.562 15.0625Q119.562 13.1875 119.938 12.8125L124.062 12.625Q124.438 13 124.438 14.875ZM139.112 40.6516Q138.97 41.125 137.25 41.125Q135.254 41.125 135.19 40.7736Q135.188 40.762 135.188 40.75L134.625 36.25L134.625 32.3125Q134.625 29.875 134.438 28.5625L131.625 28.5625Q130.875 27.8125 130.875 26.125Q130.875 24.8327 131.432 24.5146Q131.521 24.4635 131.625 24.4375L134.438 24.4375L134.438 19.75Q134.438 17.125 134.625 16.1875Q134.625 13.5625 135 13.1875L139.688 13Q142.125 13 144.375 13.375L144.562 15.25Q144.562 16.375 144.188 17.125Q141.562 17.125 141.188 16.9375L140.062 16.9375L138.75 17.3125Q138.562 17.6875 138.562 24.625Q141.375 24.625 142.5 25Q142.875 25.375 142.875 26.3125Q142.875 28.1875 142.688 28.5625Q142.5 28.75 138.75 28.75L138.562 28.75Q138.75 29.6875 138.75 31.9375L138.75 35.6875L139.125 40.5625Q139.125 40.6089 139.112 40.6516ZM160 41.5Q156.812 41.5 154.938 41.3125Q154.562 40.9375 154.562 38.3125L154.375 33.4375L154.562 27.25L151.188 27.4375Q150.812 26.3125 150.812 25.75Q150.812 25.1875 151 24.8125L151.188 23.6875L154.562 23.5L155.125 13.75Q155.125 13.738 155.127 13.7264Q155.191 13.375 157.188 13.375Q158.908 13.375 159.05 13.8484Q159.062 13.8911 159.062 13.9375L158.688 23.5L163.188 23.3125Q163.75 24.4375 163.75 25.5625L163.562 27.0625L158.688 27.25L158.5 34.1875L158.688 37.1875Q159.438 37.375 160.562 37.375L164.125 37.375Q164.5 38.125 164.5 39.25L164.312 41.125Q163.188 41.5 160 41.5ZM121.062 42.8125Q122 43.375 122.938 43.375Q124.625 43.375 125.188 43.1875Q125.375 43.15 125.555 43.09Q126.275 42.85 126.875 42.25Q127.024 42.1507 127.107 42.0121Q127.338 41.6268 127.062 40.9375L127.062 32.5Q127.062 27.25 126.875 25.9375Q126.875 25.5041 126.691 25.173Q126.318 24.5012 125.188 24.25Q125.163 24.2004 125.134 24.1529Q124.517 23.125 122.188 23.125Q120.312 23.3125 119.562 23.875Q118.625 24.25 118.625 30.4375Q118.625 34.5625 118.812 37.1875Q118.812 41.3125 119.562 41.875Q120.312 42.25 120.688 42.25L121.062 42.8125ZM106.938 43.1875Q107.5 43.1875 109.375 42.8125Q110.034 42.8125 110.435 42.4913Q110.72 42.2637 110.875 41.875L115.75 28.375Q115.938 27.8125 115.938 27.0625L115.188 26.125L115 25.9375L114.062 25.375L113.688 25.1875L113.5 25L112.562 24.4375Q112 24.25 111.25 24.25Q110.875 24.0625 110.312 24.0625L109.188 23.875Q108.981 23.875 108.802 23.9464Q108.334 24.1336 108.062 24.8125L106.188 30.625L104.5 25.75Q104.228 25.0711 103.76 24.8839Q103.582 24.8125 103.375 24.8125L103 24.8125Q102.728 24.1336 102.26 23.9464Q102.082 23.875 101.875 23.875Q101.312 23.6875 100 23.6875Q98.6875 23.6875 98.125 23.875Q97.9181 23.875 97.7397 23.9464Q97.2715 24.1336 97 24.8125L96.4375 26.125L95.3125 30.4375L93.625 25.75Q93.3535 25.0711 92.8853 24.8839Q92.7069 24.8125 92.5 24.8125L92.125 24.8125Q91.8535 24.1336 91.3853 23.9464Q91.2069 23.875 91 23.875Q89.6875 23.875 88.375 24.4375L86.3125 25.375Q85.6176 25.7224 85.495 26.2129Q85.4191 26.5165 85.5625 26.875L91 40.9375Q91.1875 41.5 92.125 41.875L92.5 42.0625Q92.6875 42.4375 93.625 42.8125Q94.75 43.1875 95.875 43.1875Q96.4375 43.1875 98.6875 42.8125Q98.8944 42.8125 99.0728 42.7411Q99.541 42.5539 99.8125 41.875L100.938 38.125L102.062 40.9375Q102.25 41.5 103.188 41.875L103.562 42.0625Q103.75 42.4375 104.688 42.8125Q105.812 43.1875 106.938 43.1875ZM123.312 41.125Q122.938 41.3125 121.438 41.3125Q120.875 41.3125 119.938 40.75L119.75 30.4375Q119.75 25.1875 120.125 24.8125L122.375 24.25Q124.039 24.25 124.245 24.7972Q124.247 24.8048 124.25 24.8125Q124.438 25 124.438 31.5625L124.438 37.1875Q124.438 39.8125 124.625 40.5625Q124.25 40.9375 123.312 41.125ZM94.375 41.125Q93.625 41.125 92.125 40.75L86.6875 26.5L88.75 25.5625Q90.25 25 91 25L94.75 35.875L97.5625 26.5L98.125 25Q98.875 24.8125 100 24.8125Q101.312 24.8125 101.875 25L105.812 35.875L109.188 25L111.625 25.375L113.5 26.3125L108.25 40.75Q106.375 41.125 105.438 41.125Q104.688 41.125 103.188 40.75L100 31.9375L97.1875 40.75Q95.3125 41.125 94.375 41.125Z" fill="#A29BFEFF"/>
	</g>
	<defs>
		<clipPath id="clip8_2">
			<rect id="logo_text" width="246.000000" height="52.000000" fill="white"/>
		</clipPath>
	</defs>
</svg>
