<svg viewBox="0 0 16 16" xmlns="http://www.w3.org/2000/svg">
	<g clip-path="url(#clip4_1)">
		<path d="M13.9705 8.59866C13.8627 9.68649 13.4644 10.6889 12.8542 11.5272C12.0793 12.5932 11.0189 13.3294 9.85394 13.7068C8.60037 14.1137 7.30972 14.0861 6.14548 13.7066C5.09644 13.3654 4.20529 12.7626 3.52139 11.9939C3.30121 11.7464 3.36301 11.369 3.63101 11.1743C3.89926 10.9794 4.27209 11.042 4.49863 11.2841C5.06595 11.8905 5.76413 12.3216 6.51685 12.5655C7.51968 12.891 8.55222 12.8688 9.48361 12.5653C10.4863 12.2392 11.3086 11.6144 11.8837 10.8214C12.3769 10.1421 12.6663 9.37686 12.7632 8.59885C12.8042 8.26993 13.0689 8 13.4004 8C13.7315 8 14.0031 8.2691 13.9705 8.59866Z" fill-rule="evenodd"/>
		<path d="M2.02948 7.40134C2.13727 6.31351 2.53555 5.3111 3.14575 4.47278C3.92075 3.4068 4.98114 2.67056 6.14606 2.29315C7.39963 1.88629 8.69028 1.91394 9.85452 2.29337C10.9036 2.63458 11.7947 3.23737 12.4786 4.0061C12.6988 4.25363 12.637 4.63101 12.369 4.82574C12.1007 5.02063 11.7279 4.95804 11.5014 4.71591C10.9341 4.10953 10.2359 3.67838 9.48315 3.43454C8.48032 3.10904 7.44778 3.13116 6.51639 3.43469C5.51373 3.7608 4.69141 4.38559 4.1163 5.17862C3.62311 5.85791 3.33368 6.62314 3.23676 7.40115C3.1958 7.73007 2.93109 8 2.59964 8C2.26846 8 1.99686 7.7309 2.02948 7.40134Z" fill-rule="evenodd"/>
	</g>
	<defs>
		<clipPath>
			<rect width="16.000000" height="16.000000"/>
		</clipPath>
	</defs>
</svg>
