<svg viewBox="0 0 16 16" fill="currentColor" xmlns="http://www.w3.org/2000/svg">
	<g clip-path="url(#clip2_1)">
		<g clip-path="url(#clip2_5)">
			<rect  x="12.596191" y="2.696686" rx="0.500000" width="1.000000" height="2.000000" transform="rotate(45 12.596191 2.696686)" />
		</g>
		<g clip-path="url(#clip2_18)">
			<rect  x="15.000000" y="7.500000" rx="0.500000" width="1.000000" height="2.000000" transform="rotate(90 15.000000 7.500000)" />
		</g>
		<g clip-path="url(#clip2_16)">
			<rect  x="13.303314" y="12.596191" rx="0.500000" width="1.000000" height="2.000000" transform="rotate(135 13.303314 12.596191)" />
		</g>
		<g clip-path="url(#clip2_14)">
			<rect  x="8.500000" y="15.000000" rx="0.500000" width="1.000000" height="2.000000" transform="rotate(180 8.500000 15.000000)" />
		</g>
		<g clip-path="url(#clip2_12)">
			<rect  x="3.403809" y="13.303314" rx="0.500000" width="1.000000" height="2.000000" transform="rotate(-135 3.403809 13.303314)" />
		</g>
		<g clip-path="url(#clip2_10)">
			<rect  x="1.000000" y="8.500000" rx="0.500000" width="1.000000" height="2.000000" transform="rotate(-90 1.000000 8.500000)" />
		</g>
		<g clip-path="url(#clip2_8)">
			<rect  x="2.696686" y="3.403809" rx="0.500000" width="1.000000" height="2.000000" transform="rotate(-45 2.696686 3.403809)" />
		</g>
		<g clip-path="url(#clip2_6)">
			<rect  x="7.500000" y="1.000000" rx="0.500000" width="1.000000" height="2.000000" />
		</g>
		<circle  cx="8.000000" cy="8.000000" r="4.000000" />
	</g>
	<defs>
		<clipPath id="clip2_5">
			<rect  width="16.000000" height="16.000000" transform="translate(8.000000 -3.313721) rotate(45.000000)" />
		</clipPath>
		<clipPath id="clip2_18">
			<rect  width="16.000000" height="16.000000" transform="translate(16.000000 0.000000) rotate(90.000000)" />
		</clipPath>
		<clipPath id="clip2_16">
			<rect  width="16.000000" height="16.000000" transform="translate(19.313721 8.000000) rotate(135.000000)" />
		</clipPath>
		<clipPath id="clip2_14">
			<rect  width="16.000000" height="16.000000" transform="translate(16.000000 16.000000) rotate(180.000000)" />
		</clipPath>
		<clipPath id="clip2_12">
			<rect  width="16.000000" height="16.000000" transform="translate(8.000000 19.313721) rotate(-135.000000)" />
		</clipPath>
		<clipPath id="clip2_10">
			<rect  width="16.000000" height="16.000000" transform="translate(0.000000 16.000000) rotate(-90.000000)" />
		</clipPath>
		<clipPath id="clip2_8">
			<rect  width="16.000000" height="16.000000" transform="translate(-3.313721 8.000000) rotate(-45.000000)" />
		</clipPath>
		<clipPath id="clip2_6">
			<rect  width="16.000000" height="16.000000" />
		</clipPath>
		<clipPath id="clip2_1">
			<rect id="sun" width="16.000000" height="16.000000" />
		</clipPath>
	</defs>
</svg>